<svg id="Capa_2" data-name="Capa 2" xmlns="http://www.w3.org/2000/svg" viewBox="0 0 188.56 292.73"><title>U1_BLANCA</title><path d="M152.94,237.89c9.1,0,17.9-4.63,24.76-13,7.79-9.52,12.08-22.43,12.08-36.32V44.3h-3.19V188.53c0,13-4.14,25.47-11.35,34.3-3.62,4.42-11.33,11.86-22.3,11.86s-18.66-7.44-22.28-11.86c-7.21-8.83-11.35-21.34-11.35-34.3V38.15h-3.2V188.54c0,13.89,4.29,26.8,12.07,36.32C135.06,233.27,143.85,237.89,152.94,237.89Zm0,12.77c27.36,0,49.61-27.86,49.61-62.12V33.05h-3.19v155.5c0,1.66-.05,3.33-.17,5-.08,1.33-.21,2.65-.36,4a0,0,0,0,1,0,0c-.23,1.93-.53,3.87-.92,5.75a67.28,67.28,0,0,1-3.11,10.81c-.33.86-.66,1.7-1,2.53-.22.52-.45,1-.68,1.56s-.38.8-.57,1.19c-5.57,11.46-14.12,20.33-24.28,24.84-.35.15-.69.31-1,.44s-.61.25-.92.36l-.25.11-.91.32a.19.19,0,0,1-.08,0l-.89.3a1.32,1.32,0,0,0-.3.09c-.31.1-.61.19-.92.27s-.73.21-1.09.28l-1,.24-1.37.27-.93.16c-.85.14-1.72.23-2.6.29l-.74.07c-.76,0-1.5.06-2.25.06s-1.49,0-2.24-.06c-.25,0-.5,0-.74-.07-.89-.06-1.74-.16-2.61-.29-.31,0-.61-.1-.92-.16q-.69-.12-1.38-.27c-.34-.07-.66-.15-1-.24s-.73-.18-1.09-.28-.61-.17-.93-.27l-.29-.09-.9-.3a.13.13,0,0,0-.08,0l-.91-.32-.24-.11c-.31-.11-.61-.23-.92-.36s-.7-.29-1-.44c-9.8-4.34-18.1-12.73-23.66-23.59-.14-.29-.28-.56-.43-.85s-.27-.56-.4-.84-.34-.7-.49-1c-.38-.82-.74-1.66-1.08-2.51-.17-.42-.34-.85-.49-1.28a62.59,62.59,0,0,1-2.49-8h0c-.24-.92-.44-1.86-.63-2.79-.1-.47-.19-1-.27-1.42,0,0,0,0,0,0-.26-1.43-.47-2.86-.65-4.31-.07-.49-.12-1-.17-1.5-.08-.82-.14-1.65-.19-2.5-.12-1.63-.17-3.29-.17-5V37.21h-3.2V188.54C103.34,222.8,125.6,250.66,152.94,250.66Zm-42.86-55c0,.19,0,.38.06.58.08.72.17,1.44.28,2.16v0c.19,1.35.41,2.69.67,4,.09.46.18.88.27,1.33.2.88.42,1.75.64,2.6.17.65.35,1.29.53,1.92.08.3.17.59.27.89.16.5.32,1,.49,1.5s.24.72.36,1.07.31.84.47,1.25.32.85.49,1.25a57.41,57.41,0,0,0,8.63,14.64c6.33,7.75,14.16,12.77,22.54,14.6l1,.2c.34.07.68.12,1,.17l1,.15c.27,0,.53.06.8.09s.43,0,.66.06.4,0,.6.05.69,0,1,0,.69,0,1,0,.69,0,1,0l1,0c.2,0,.4,0,.6-.05a4.91,4.91,0,0,0,.66-.06l.81-.09,1-.15c.34-.05.67-.1,1-.17s.67-.12,1-.2c8.4-1.83,16.22-6.85,22.54-14.6a57.63,57.63,0,0,0,9.55-17.07s0-.07,0-.13c.12-.33.25-.67.37-1,.19-.57.37-1.14.55-1.74.52-1.69,1-3.41,1.37-5.18s.7-3.51,1-5.33c0,0,0,0,0-.05.13-.9.23-1.82.32-2.74a70,70,0,0,0,.35-7.13V28.56H193v160c0,14.63-4.54,28.24-12.79,38.33-7.49,9.17-17.16,14.21-27.24,14.21s-19.74-5-27.23-14.21c-8.25-10.09-12.79-23.7-12.79-38.33V30.21h-3.19V188.54q0,3.12.26,6.15C110,195,110.05,195.34,110.08,195.66ZM97,188.54a83.47,83.47,0,0,0,1.14,13.81c.18,1.11.4,2.22.63,3.31a77.25,77.25,0,0,0,3.76,12.57c.58,1.51,1.22,3,1.89,4.4s1.39,2.84,2.14,4.21c.25.45.51.9.77,1.34.52.9,1.06,1.78,1.61,2.64s1.13,1.71,1.71,2.54,1.2,1.64,1.81,2.43l.93,1.18c1,1.17,1.93,2.28,3,3.36.33.36.68.71,1,1.06C127,251.17,139.39,257,152.93,257c30.92,0,56-30.66,56-68.5v-150h0V37.24h-3.18V188.55c0,23.08-9.72,43.4-24.36,55a52.29,52.29,0,0,1-4.42,3.16c-.75.48-1.53.94-2.31,1.37s-1.57.84-2.38,1.23q-.6.3-1.2.57c-.81.38-1.62.72-2.46,1s-1.66.61-2.5.88-1.7.52-2.56.74a43.11,43.11,0,0,1-21.25,0c-.86-.22-1.7-.45-2.55-.74s-1.68-.56-2.5-.88-1.65-.66-2.45-1c-.42-.18-.81-.36-1.21-.57-.8-.39-1.58-.8-2.37-1.23s-1.55-.89-2.31-1.37a49.68,49.68,0,0,1-4.43-3.16c-14.64-11.61-24.36-31.93-24.36-55v-145H96.84v.2h.08V188.54Zm56,36.6c11.4,0,24.07-15,24.07-36.59V70.7h-3.19V188.54c0,19.12-11,33.39-20.88,33.39s-20.86-14.27-20.86-33.39V23.46h-3.2V188.55C128.88,210.11,141.56,225.14,152.94,225.14Zm0,6.37c16.51,0,30.46-19.68,30.46-43V52.82h-3.19V188.54c0,11.52-3.61,22.55-9.92,30.26-2.9,3.56-9,9.51-17.35,9.51s-14.44-5.95-17.33-9.51c-6.31-7.71-9.92-18.74-9.92-30.26v-158H122.5v158C122.5,211.83,136.44,231.51,152.94,231.51ZM244,10.69V188.54c0,26.38-8.64,51.47-24.32,70.66a91.16,91.16,0,0,1-29.59,24,82.07,82.07,0,0,1-74.38,0,91.19,91.19,0,0,1-29.57-24C70.49,240,61.86,214.91,61.86,188.54V24.74H58.67v163.8c0,27.11,8.88,52.91,25,72.67a94.69,94.69,0,0,0,30.61,24.88,85.27,85.27,0,0,0,77.25,0,94.62,94.62,0,0,0,30.62-24.88c16.14-19.76,25-45.57,25-72.67V10.69Zm-91.1,252.74c16.91,0,32.73-8,44.54-22.41,11.5-14.08,17.84-32.7,17.84-52.48V42.67h-3.19V188.55c0,19-6.09,37-17.12,50.46q-2.1,2.56-4.36,4.84c-.75.75-1.52,1.49-2.31,2.2-10.16,9.22-22.45,14.2-35.39,14.2s-25.22-5-35.38-14.2c-.78-.7-1.56-1.44-2.31-2.2q-2.27-2.28-4.38-4.84c-11-13.5-17.11-31.43-17.11-50.46V37.71h-.08v-.05H90.58V188.54c0,19.76,6.33,38.4,17.83,52.48C120.23,255.47,136.05,263.43,152.94,263.43Zm-35.75,17a79,79,0,0,0,71.52,0,88.05,88.05,0,0,0,28.54-23.22c15.23-18.62,23.61-43,23.61-68.63V2.61h-3.19V188.54c0,24.92-8.13,48.57-22.88,66.62a85.11,85.11,0,0,1-27.51,22.39,75.67,75.67,0,0,1-68.64,0,85.15,85.15,0,0,1-27.52-22.39c-14.75-18.06-22.88-41.72-22.88-66.62V2.61H65.05V188.54c0,25.63,8.38,50,23.61,68.63A87.76,87.76,0,0,0,117.19,280.39Zm2.88-5.68a72.58,72.58,0,0,0,65.74,0,81.73,81.73,0,0,0,26.49-21.57c14.28-17.48,22.16-40.42,22.16-64.6V20.48h-3.19V188.54c0,23.44-7.62,45.67-21.44,62.57-14.9,18.24-35.1,28.27-56.89,28.27s-42-10-56.88-28.27C82.24,234.19,74.63,212,74.63,188.54V12.46H71.44V188.54c0,24.16,7.87,47.11,22.16,64.6A82,82,0,0,0,120.07,274.71Zm32.87-4.9c18.87,0,36.44-8.78,49.47-24.74,12.43-15.21,19.28-35.29,19.28-56.52V35H218.5V188.54c0,20.5-6.59,39.87-18.56,54.49-.77.95-1.57,1.88-2.37,2.76-.6.68-1.21,1.33-1.84,2l-.64.65A63.16,63.16,0,0,1,175,262.11c-1.25.53-2.51,1-3.78,1.45a56.47,56.47,0,0,1-36.2.14q-2.36-.78-4.64-1.78a63,63,0,0,1-19.62-13.52,69.64,69.64,0,0,1-4.85-5.38c-12-14.64-18.56-34-18.56-54.49V31.82H84.19V188.55c0,21.23,6.85,41.31,19.28,56.52C116.52,261,134.09,269.81,152.94,269.81Zm-48.82-14.53c1.21,1.22,2.46,2.37,3.71,3.49.51.44,1,.88,1.54,1.31l1.55,1.26c1.57,1.23,3.17,2.4,4.8,3.48.82.54,1.65,1.06,2.48,1.57l.83.49c.56.34,1.13.65,1.69,1a66.34,66.34,0,0,0,32.22,8.35c20.82,0,40.14-9.62,54.43-27.1,13.35-16.35,20.72-37.87,20.72-60.56V27.29H224.9V188.54c0,22-7.11,42.76-20,58.54C191.24,263.79,172.78,273,153,273s-38.28-9.2-51.93-25.93c-12.9-15.78-20-36.57-20-58.54v-165H77.83v165c0,22.7,7.36,44.21,20.73,60.56A76.58,76.58,0,0,0,104.12,255.28Z" transform="translate(-58.67 -2.61)" style="fill:#fff"/></svg>