<svg id="Capa_1" data-name="Capa 1" xmlns="http://www.w3.org/2000/svg" viewBox="0 0 296.14 30.63"><title>URBANO HORIZONTAL</title><path d="M1.47,49.18V31.87h2.2V49c0,7,3.76,11,10,11,6,0,9.85-3.64,9.85-10.79V31.86h2.2v17c0,8.49-4.94,13-12.14,13S1.47,57.47,1.47,49.18Z" transform="translate(-1.47 -31.37)" style="fill:#dbdedd"/><path d="M64.66,31.89H76.88c3.35,0,6.05,1,7.7,2.62a6.4,6.4,0,0,1,1.9,4.65v.09c0,4-2.62,6-5,7,3.55.92,6.68,3,6.68,7.07v.09c0,4.94-4.23,8.07-10.62,8.07H64.65V31.89Zm19.58,7.48c0-3.26-2.66-5.46-7.4-5.46h-10V45.53h9.77c4.45,0,7.61-2.16,7.61-6.09Zm-7.36,8.2h-10V59.45H77.59c5.07,0,8.29-2.33,8.29-6.05v-.09C85.89,49.69,82.72,47.57,76.88,47.57Z" transform="translate(-1.47 -31.37)" style="fill:#dbdedd"/><path d="M128.61,31.89h2.07l20.44,25.76V31.89h2.11V61.5h-1.65L130.72,35.18v26.3h-2.11Z" transform="translate(-1.47 -31.37)" style="fill:#dbdedd"/><path d="M160.71,46.77v-.09c0-8.07,6-15.31,14.93-15.31s14.85,7.15,14.85,15.23v.09c0,8.07-6,15.31-14.94,15.31S160.71,54.84,160.71,46.77Zm27.5,0v-.09c0-7.31-5.33-13.33-12.64-13.33S163,39.28,163,46.59v.09C163,54,168.33,60,175.64,60S188.21,54.08,188.21,46.77Z" transform="translate(-1.47 -31.37)" style="fill:#dbdedd"/><path d="M48.41,48.84c5-.68,8.67-3.51,8.67-8.46v-.09a7.85,7.85,0,0,0-2.24-5.5,11.7,11.7,0,0,0-8.33-2.92H34.07V61.48h2.2V49.22h0v-2h0V33.91H46.38c5.37,0,8.5,2.49,8.5,6.47v.09c0,4.28-3.69,6.78-8.63,6.78H41.46v2H46L55.39,61.5h2.79Z" transform="translate(-1.47 -31.37)" style="fill:#dbdedd"/><polygon points="116.03 24.75 118.46 30.11 120.88 30.11 118.4 24.75 116.03 24.75" style="fill:#dbdedd"/><path d="M116.19,53.22h2.34l-10-21.55h-2.11L92.66,61.48h2.28l3.76-8.29h17.47Zm-16.55-2,7.83-17.12,7.78,17.12Z" transform="translate(-1.47 -31.37)" style="fill:#dbdedd"/><path d="M202,47.36h.48v2.9a4.24,4.24,0,0,1,3.9-3.17,4,4,0,0,1,4.11,3.36,4.47,4.47,0,0,1,4-3.36c2.51,0,4.25,1.67,4.25,4.88v6.68h-.48V52c0-2.94-1.56-4.47-3.8-4.47-1.94,0-3.88,1.94-3.88,4.52v6.59h-.48V52c0-2.94-1.56-4.47-3.8-4.47-1.94,0-3.89,1.94-3.89,4.52v6.59H202V47.36Z" transform="translate(-1.47 -31.37)" style="fill:#a8a8a7"/><path d="M222.07,53v0c0-3.35,2.28-5.87,5.42-5.87,3.57,0,5.19,3.14,5.19,6v.09H222.59a5.14,5.14,0,0,0,5.15,5.33,5.29,5.29,0,0,0,4.17-2.28l.38.27A5.59,5.59,0,0,1,222.07,53Zm10.1-.3c-.09-2.57-1.72-5.17-4.7-5.17-2.8,0-4.77,2.21-4.88,5.17Z" transform="translate(-1.47 -31.37)" style="fill:#a8a8a7"/><path d="M235.28,53V53a5.66,5.66,0,0,1,5.64-5.89,5.31,5.31,0,0,1,5.22,3.77V42.16h.47V58.65h-.47v-3.5a5.33,5.33,0,0,1-5.22,3.77A5.66,5.66,0,0,1,235.28,53Zm10.88,0V53A5.28,5.28,0,0,0,241,47.53,5.14,5.14,0,0,0,235.77,53v0A5.19,5.19,0,0,0,241,58.47,5.25,5.25,0,0,0,246.16,53Z" transform="translate(-1.47 -31.37)" style="fill:#a8a8a7"/><path d="M250.83,42.84h.7v1.29h-.7Zm.12,4.52h.48V58.65H251Z" transform="translate(-1.47 -31.37)" style="fill:#a8a8a7"/><path d="M254.81,55.53v-.05c0-2.37,2.22-3.59,5-3.59a13.3,13.3,0,0,1,4.25.7v-1c0-2.73-1.63-4-4.27-4a8.26,8.26,0,0,0-3.74,1l-.18-.41a8.62,8.62,0,0,1,4-1,5,5,0,0,1,3.62,1.24,4.49,4.49,0,0,1,1.11,3.21v7h-.48V56c-.48,1.32-2.16,2.94-5.06,2.94C256.82,58.92,254.81,57.77,254.81,55.53Zm9.29-1V53.07a11.59,11.59,0,0,0-4.23-.72c-2.55,0-4.55,1-4.55,3.12v0c0,2,1.76,3,3.74,3C262.09,58.47,264.1,56.53,264.1,54.52Z" transform="translate(-1.47 -31.37)" style="fill:#a8a8a7"/><path d="M268.68,42.17h.48V58.66h-.48Z" transform="translate(-1.47 -31.37)" style="fill:#a8a8a7"/><path d="M272.54,55.53v-.05c0-2.37,2.22-3.59,5-3.59a13.19,13.19,0,0,1,4.24.7v-1c0-2.73-1.62-4-4.26-4a8.26,8.26,0,0,0-3.74,1l-.18-.41a8.62,8.62,0,0,1,3.95-1,5,5,0,0,1,3.62,1.24,4.49,4.49,0,0,1,1.1,3.21v7h-.47V56c-.48,1.32-2.17,2.94-5.06,2.94C274.55,58.92,272.54,57.77,272.54,55.53Zm9.28-1V53.07a11.54,11.54,0,0,0-4.22-.72c-2.55,0-4.56,1-4.56,3.12v0c0,2,1.77,3,3.75,3C279.82,58.47,281.82,56.53,281.82,54.52Z" transform="translate(-1.47 -31.37)" style="fill:#a8a8a7"/><path d="M286.74,55.15v3.5h-.47V42.16h.47v8.69A5.32,5.32,0,0,1,292,47.08,5.66,5.66,0,0,1,297.61,53V53a5.67,5.67,0,0,1-5.65,5.9A5.32,5.32,0,0,1,286.74,55.15Zm10.37-2.1v0a5.2,5.2,0,1,0-10.39,0V53a5.29,5.29,0,0,0,5.21,5.45A5.14,5.14,0,0,0,297.11,53.05Z" transform="translate(-1.47 -31.37)" style="fill:#a8a8a7"/></svg>