<?xml version="1.0" encoding="utf-8"?>
<!-- Generator: Adobe Illustrator 23.0.1, SVG Export Plug-In . SVG Version: 6.00 Build 0)  -->
<svg version="1.1" id="Capa_1" xmlns="http://www.w3.org/2000/svg" xmlns:xlink="http://www.w3.org/1999/xlink" x="0px" y="0px"
	 viewBox="0 0 300 300" style="enable-background:new 0 0 300 300;" xml:space="preserve">
<style type="text/css">
	.st0{fill:url(#SVGID_1_);}
	.st1{fill:#555557;}
	.st2{fill:#272425;}
</style>
<g>
	<g>
		<linearGradient id="SVGID_1_" gradientUnits="userSpaceOnUse" x1="149.536" y1="233.047" x2="149.536" y2="16.5">
			<stop  offset="0" style="stop-color:#3B3B3B"/>
			<stop  offset="0.4413" style="stop-color:#C1C1C1"/>
			<stop  offset="1" style="stop-color:#000000"/>
		</linearGradient>
		<path class="st0" d="M149.53,190.55c6.73,0,13.24-3.42,18.32-9.64c5.76-7.05,8.93-16.59,8.93-26.87V47.5v-0.15h-2.36v0.15v106.55
			c0,9.59-3.06,18.84-8.4,25.37c-2.68,3.28-8.38,8.77-16.49,8.77c-8.11,0-13.81-5.5-16.48-8.77c-5.34-6.53-8.4-15.78-8.4-25.37
			V42.94V42.8h-2.36v0.14v111.1c0,10.27,3.17,19.82,8.93,26.87C136.3,187.13,142.81,190.55,149.53,190.55z M149.53,199.99
			c20.23,0,36.7-20.61,36.7-45.95V39.16v-0.14h-2.36v0.14v114.88c0,1.23-0.04,2.46-0.12,3.67c-0.06,0.98-0.15,1.96-0.27,2.93
			c0,0.01,0,0.02-0.01,0.03c-0.17,1.43-0.39,2.86-0.68,4.25c-0.56,2.77-1.33,5.44-2.31,8c-0.24,0.63-0.49,1.26-0.76,1.88
			c-0.16,0.39-0.33,0.77-0.51,1.15c-0.14,0.3-0.28,0.6-0.42,0.89c-4.12,8.48-10.45,15.04-17.96,18.37
			c-0.26,0.12-0.51,0.23-0.77,0.33c-0.23,0.09-0.45,0.18-0.68,0.27c-0.06,0.03-0.12,0.05-0.18,0.07c-0.22,0.09-0.44,0.16-0.67,0.24
			c-0.02,0.01-0.04,0.01-0.06,0.02c-0.22,0.07-0.44,0.15-0.66,0.22c-0.08,0.02-0.15,0.04-0.22,0.06c-0.23,0.08-0.45,0.14-0.68,0.2
			c-0.26,0.08-0.53,0.15-0.8,0.21c-0.25,0.07-0.49,0.12-0.73,0.17c-0.34,0.07-0.68,0.14-1.02,0.2c-0.23,0.04-0.45,0.08-0.68,0.11
			c-0.64,0.1-1.28,0.18-1.92,0.22c-0.18,0.02-0.36,0.03-0.54,0.04c-0.55,0.03-1.1,0.05-1.66,0.05c-0.56,0-1.11-0.02-1.66-0.05
			c-0.18-0.01-0.36-0.03-0.54-0.04c-0.65-0.05-1.29-0.12-1.92-0.22c-0.23-0.03-0.45-0.07-0.68-0.11c-0.34-0.06-0.68-0.13-1.02-0.2
			c-0.25-0.05-0.49-0.11-0.73-0.17c-0.27-0.06-0.54-0.13-0.8-0.21c-0.23-0.06-0.45-0.12-0.68-0.2c-0.07-0.02-0.15-0.04-0.22-0.06
			c-0.22-0.07-0.44-0.14-0.66-0.22c-0.02-0.01-0.04-0.02-0.06-0.02c-0.23-0.07-0.45-0.15-0.67-0.24c-0.06-0.02-0.12-0.05-0.18-0.07
			c-0.23-0.08-0.45-0.17-0.68-0.27c-0.26-0.1-0.51-0.21-0.77-0.33c-7.25-3.21-13.39-9.42-17.5-17.45c-0.11-0.21-0.21-0.42-0.32-0.63
			c-0.1-0.21-0.2-0.41-0.3-0.63c-0.13-0.26-0.25-0.52-0.36-0.78c-0.28-0.61-0.55-1.23-0.8-1.85c-0.13-0.31-0.25-0.63-0.37-0.95
			c-0.74-1.91-1.35-3.89-1.85-5.92c0,0,0-0.01,0-0.01c-0.17-0.68-0.33-1.37-0.46-2.07c-0.08-0.35-0.14-0.7-0.2-1.05
			c-0.01,0-0.01-0.01-0.01-0.01c-0.19-1.05-0.35-2.12-0.48-3.19c-0.05-0.37-0.09-0.74-0.13-1.12c-0.06-0.61-0.11-1.22-0.15-1.84
			c-0.09-1.21-0.12-2.44-0.12-3.67V42.24v-0.15h-2.36v0.15v111.81C112.84,179.38,129.31,199.99,149.53,199.99z M117.83,159.31
			c0.01,0.14,0.03,0.28,0.04,0.42c0.06,0.54,0.12,1.07,0.2,1.6c0,0.01,0,0.03,0,0.04c0.14,1,0.31,1.99,0.5,2.96
			c0.07,0.33,0.13,0.66,0.21,0.98c0.15,0.65,0.31,1.3,0.47,1.93c0.12,0.48,0.26,0.95,0.4,1.42c0.06,0.22,0.13,0.43,0.2,0.65
			c0.11,0.37,0.23,0.74,0.36,1.11c0.09,0.26,0.18,0.53,0.27,0.79c0.11,0.31,0.23,0.62,0.35,0.93c0.12,0.31,0.24,0.62,0.36,0.92
			c1.62,3.97,3.76,7.63,6.38,10.83c4.68,5.73,10.47,9.45,16.68,10.8c0.24,0.05,0.5,0.11,0.74,0.15c0.25,0.05,0.5,0.09,0.75,0.13
			c0.25,0.04,0.5,0.08,0.75,0.11c0.2,0.02,0.4,0.05,0.6,0.06c0.16,0.02,0.32,0.03,0.49,0.04c0.15,0.01,0.29,0.02,0.44,0.03
			c0.25,0.01,0.51,0.03,0.76,0.03c0.25,0.01,0.51,0.01,0.76,0.01c0.26,0,0.51,0,0.77-0.01c0.26-0.01,0.51-0.02,0.76-0.03
			c0.15-0.01,0.29-0.02,0.44-0.03c0.17-0.01,0.33-0.02,0.49-0.04c0.2-0.02,0.39-0.04,0.59-0.06c0.25-0.03,0.5-0.07,0.75-0.11
			c0.25-0.04,0.5-0.08,0.75-0.13c0.25-0.05,0.5-0.1,0.75-0.15c6.21-1.35,12-5.07,16.68-10.8c3.01-3.69,5.39-7.96,7.07-12.63
			c0.01-0.03,0.02-0.06,0.03-0.09c0.09-0.25,0.18-0.5,0.26-0.76c0.14-0.42,0.28-0.85,0.41-1.28c0.38-1.25,0.72-2.52,1.01-3.83
			c0.28-1.29,0.52-2.61,0.71-3.94c0.01-0.01,0.01-0.03,0.01-0.04c0.09-0.66,0.17-1.34,0.24-2.02c0.17-1.73,0.26-3.49,0.26-5.27
			V35.85V35.7h-2.36v0.15v118.19c0,10.82-3.36,20.89-9.47,28.36c-5.54,6.78-12.69,10.51-20.15,10.51c-7.45,0-14.6-3.73-20.14-10.51
			c-6.1-7.47-9.46-17.54-9.46-28.36V37.07v-0.15h-2.36v0.15v116.98c0,1.53,0.07,3.05,0.2,4.55
			C117.78,158.83,117.8,159.07,117.83,159.31z M108.12,154.04c0,3.5,0.29,6.91,0.84,10.21c0.14,0.82,0.29,1.64,0.46,2.45
			c0.68,3.24,1.62,6.35,2.78,9.3c0.43,1.11,0.91,2.19,1.4,3.25c0.5,1.06,1.03,2.1,1.59,3.11c0.18,0.34,0.38,0.67,0.57,1
			c0.39,0.66,0.78,1.31,1.19,1.95c0.41,0.64,0.83,1.27,1.27,1.88c0.43,0.61,0.88,1.21,1.33,1.8c0.23,0.29,0.46,0.58,0.69,0.87
			c0.71,0.86,1.43,1.69,2.18,2.48c0.25,0.26,0.51,0.53,0.76,0.79c7.16,7.22,16.33,11.57,26.34,11.57
			c22.87,0,41.42-22.68,41.42-50.67v-111h-0.01v-0.93h-2.35v0.15v111.78c0,17.07-7.19,32.1-18.02,40.69
			c-1.06,0.84-2.15,1.62-3.27,2.33c-0.56,0.36-1.13,0.7-1.7,1.02c-0.58,0.32-1.16,0.63-1.75,0.91c-0.3,0.15-0.59,0.29-0.89,0.42
			c-0.6,0.28-1.2,0.53-1.81,0.76c-0.61,0.23-1.23,0.45-1.85,0.65c-0.62,0.2-1.25,0.38-1.89,0.55c-2.54,0.64-5.17,0.98-7.86,0.98
			c-2.69,0-5.32-0.34-7.86-0.98c-0.63-0.16-1.26-0.34-1.88-0.55c-0.62-0.2-1.24-0.42-1.85-0.65c-0.61-0.24-1.22-0.49-1.81-0.76
			c-0.3-0.13-0.6-0.27-0.89-0.42c-0.59-0.29-1.18-0.59-1.75-0.91c-0.58-0.32-1.15-0.66-1.7-1.02c-1.12-0.71-2.22-1.49-3.27-2.33
			c-10.83-8.59-18.02-23.62-18.02-40.69V46.96v-0.14h-2.42v0.14h0.06V154.04z M149.53,181.11c8.43,0,17.81-11.12,17.81-27.06V67.01
			v-0.14h-2.36v0.14v87.03c0,14.14-8.15,24.7-15.45,24.7c-7.29,0-15.44-10.56-15.44-24.7V32.07v-0.14h-2.36v0.14v121.97
			C131.73,169.99,141.11,181.11,149.53,181.11z M149.53,185.83c12.21,0,22.53-14.55,22.53-31.78V53.79v-0.14h-2.36v0.14v100.25
			c0,8.52-2.67,16.68-7.33,22.38c-2.15,2.63-6.68,7.04-12.84,7.04c-6.16,0-10.68-4.41-12.83-7.04c-4.66-5.7-7.33-13.86-7.33-22.38
			V37.3v-0.15h-2.36v0.15v116.74C127.01,171.28,137.32,185.83,149.53,185.83z M216.92,22.48v0.15v131.42
			c0,19.51-6.39,38.08-17.99,52.27c-6.22,7.61-13.59,13.6-21.88,17.79c-8.66,4.38-17.92,6.59-27.52,6.59
			c-9.59,0-18.85-2.21-27.51-6.59c-8.3-4.19-15.66-10.17-21.88-17.79c-11.6-14.2-17.99-32.76-17.99-52.27V33.01v-0.14h-2.36v0.14
			v121.03c0,20.05,6.58,39.14,18.52,53.76c6.43,7.87,14.05,14.06,22.65,18.4c8.99,4.54,18.6,6.84,28.57,6.84
			c9.97,0,19.58-2.3,28.58-6.84c8.59-4.34,16.21-10.53,22.64-18.4c11.94-14.62,18.52-33.71,18.52-53.76V22.63v-0.15H216.92z
			 M149.53,209.44c12.51,0,24.21-5.88,32.94-16.57c8.51-10.41,13.2-24.19,13.2-38.82V46.28v-0.15h-2.36v107.91
			c0,14.08-4.5,27.34-12.67,37.32c-1.03,1.27-2.11,2.46-3.23,3.58c-0.56,0.56-1.12,1.11-1.7,1.63c-7.51,6.81-16.6,10.5-26.18,10.5
			c-9.57,0-18.66-3.69-26.18-10.5c-0.58-0.52-1.15-1.07-1.7-1.63c-1.12-1.12-2.2-2.32-3.23-3.58c-8.16-9.99-12.66-23.25-12.66-37.32
			V42.47h-0.05v-0.04h-2.31v0.15v111.47c0,14.62,4.68,28.41,13.19,38.82C125.33,203.55,137.03,209.44,149.53,209.44z M123.09,221.99
			c8.33,4.21,17.23,6.34,26.45,6.34c9.22,0,18.12-2.13,26.45-6.34c8-4.04,15.1-9.82,21.11-17.17c11.26-13.77,17.46-31.8,17.46-50.77
			V16.64V16.5h-2.36v0.14v137.4c0,18.43-6.01,35.93-16.93,49.28c-5.8,7.1-12.65,12.67-20.35,16.56c-7.99,4.04-16.53,6.08-25.39,6.08
			c-8.85,0-17.38-2.04-25.38-6.08c-7.71-3.89-14.55-9.46-20.36-16.56c-10.91-13.36-16.92-30.86-16.92-49.28V16.64V16.5h-2.36v0.14
			v137.4c0,18.96,6.2,37,17.46,50.77C107.98,212.17,115.09,217.95,123.09,221.99z M125.22,217.78c7.66,3.87,15.84,5.83,24.31,5.83
			c8.48,0,16.66-1.96,24.32-5.83c7.41-3.74,14-9.1,19.59-15.95c10.57-12.93,16.39-29.9,16.39-47.78V29.87v-0.15h-2.36v0.15v124.18
			c0,17.34-5.63,33.78-15.86,46.29c-11.02,13.49-25.97,20.91-42.08,20.91s-31.06-7.42-42.08-20.91
			c-10.23-12.51-15.86-28.96-15.86-46.29V23.94v-0.14h-2.36v0.14v130.11c0,17.88,5.82,34.85,16.39,47.78
			C111.22,208.67,117.81,214.04,125.22,217.78z M149.53,214.16c13.96,0,26.95-6.5,36.6-18.31c9.2-11.25,14.27-26.1,14.27-41.81
			V40.57v-0.14h-2.36v0.14v113.47c0,15.17-4.88,29.48-13.73,40.31c-0.58,0.7-1.16,1.39-1.76,2.05c-0.45,0.5-0.9,0.98-1.36,1.45
			c-0.16,0.16-0.31,0.33-0.47,0.48c-4.44,4.45-9.46,7.87-14.84,10.14c-0.92,0.4-1.85,0.75-2.79,1.07
			c-4.34,1.49-8.88,2.25-13.54,2.25c-4.55,0-8.99-0.73-13.23-2.15c-1.16-0.39-2.3-0.82-3.43-1.31c-5.26-2.27-10.16-5.64-14.51-10
			c-1.24-1.25-2.44-2.58-3.59-3.98c-8.85-10.83-13.73-25.15-13.73-40.31V38.25V38.1h-2.36v0.15v115.79
			c0,15.71,5.07,30.56,14.26,41.81C122.59,207.66,135.59,214.16,149.53,214.16z M113.42,203.41c0.9,0.9,1.81,1.76,2.75,2.58
			c0.37,0.33,0.75,0.65,1.13,0.97c0.38,0.32,0.77,0.62,1.15,0.93c1.16,0.91,2.34,1.77,3.55,2.58c0.6,0.4,1.22,0.79,1.83,1.17
			c0.21,0.13,0.41,0.25,0.62,0.37c0.41,0.25,0.83,0.48,1.25,0.71c7.33,4.04,15.42,6.17,23.83,6.17c15.4,0,29.69-7.12,40.26-20.04
			c9.88-12.1,15.33-28.01,15.33-44.8V34.9v-0.15h-2.36v0.15v119.14c0,16.25-5.26,31.63-14.79,43.3
			c-10.11,12.37-23.76,19.18-38.43,19.18c-14.67,0-28.31-6.81-38.42-19.18c-9.54-11.67-14.79-27.05-14.79-43.3V32.11v-0.14h-2.36
			v0.14v121.93c0,16.79,5.45,32.7,15.33,44.8C110.6,200.46,111.98,201.98,113.42,203.41z"/>
	</g>
	<g>
		<path class="st1" d="M146.64,275.22h0.35v2.16c0.25-1.08,1.4-2.36,2.91-2.36c1.84,0,2.76,1.14,3.06,2.51
			c0.32-1.21,1.5-2.51,3.01-2.51c1.87,0,3.17,1.25,3.17,3.64v4.98h-0.35v-4.95c0-2.19-1.16-3.33-2.83-3.33
			c-1.45,0-2.9,1.45-2.9,3.37v4.92h-0.35v-4.95c0-2.19-1.16-3.33-2.83-3.33c-1.45,0-2.9,1.45-2.9,3.37v4.92h-0.35V275.22z"/>
		<path class="st1" d="M161.59,279.42v-0.03c0-2.49,1.7-4.38,4.04-4.38c2.66,0,3.87,2.34,3.87,4.45v0.07h-7.53
			c0.07,2.42,1.77,3.97,3.84,3.97c1.3,0,2.44-0.76,3.11-1.7l0.29,0.2c-0.72,1.04-1.94,1.84-3.42,1.84
			C163.49,283.84,161.59,282.14,161.59,279.42z M169.11,279.21c-0.07-1.92-1.28-3.86-3.5-3.86c-2.09,0-3.55,1.65-3.64,3.86H169.11z"
			/>
		<path class="st1" d="M171.44,279.44v-0.03c0-2.44,1.77-4.39,4.21-4.39c1.95,0,3.4,1.21,3.89,2.81v-6.48h0.35v12.29h-0.35v-2.61
			c-0.49,1.6-1.94,2.81-3.89,2.81C173.2,283.84,171.44,281.88,171.44,279.44z M179.55,279.44v-0.03c0-2.17-1.62-4.06-3.89-4.06
			c-2.31,0-3.86,1.79-3.86,4.04v0.03c0,2.24,1.55,4.08,3.86,4.08C177.95,283.5,179.55,281.63,179.55,279.44z"/>
		<path class="st1" d="M183.03,271.85h0.52v0.96h-0.52V271.85z M183.12,275.22h0.35v8.42h-0.35V275.22z"/>
		<path class="st1" d="M186,281.31v-0.03c0-1.77,1.65-2.68,3.75-2.68c1.18,0,2.32,0.22,3.17,0.52v-0.71c0-2.04-1.21-3-3.18-3
			c-1.04,0-1.92,0.29-2.8,0.71l-0.13-0.3c0.93-0.46,1.85-0.74,2.95-0.74c1.16,0,2.07,0.3,2.69,0.93c0.52,0.52,0.83,1.35,0.83,2.39
			v5.24h-0.35v-1.99c-0.35,0.98-1.62,2.19-3.77,2.19C187.5,283.84,186,282.98,186,281.31z M192.92,280.55v-1.08
			c-0.89-0.34-1.87-0.54-3.15-0.54c-1.9,0-3.4,0.77-3.4,2.32v0.03c0,1.48,1.31,2.21,2.79,2.21
			C191.42,283.5,192.92,282.05,192.92,280.55z"/>
		<path class="st1" d="M196.34,271.34h0.35v12.29h-0.35V271.34z"/>
		<path class="st1" d="M199.22,281.31v-0.03c0-1.77,1.65-2.68,3.75-2.68c1.18,0,2.32,0.22,3.16,0.52v-0.71c0-2.04-1.21-3-3.18-3
			c-1.04,0-1.92,0.29-2.79,0.71l-0.13-0.3c0.93-0.46,1.85-0.74,2.95-0.74c1.16,0,2.07,0.3,2.69,0.93c0.52,0.52,0.83,1.35,0.83,2.39
			v5.24h-0.35v-1.99c-0.35,0.98-1.62,2.19-3.77,2.19C200.71,283.84,199.22,282.98,199.22,281.31z M206.13,280.55v-1.08
			c-0.89-0.34-1.87-0.54-3.15-0.54c-1.9,0-3.4,0.77-3.4,2.32v0.03c0,1.48,1.31,2.21,2.79,2.21
			C204.64,283.5,206.13,282.05,206.13,280.55z"/>
		<path class="st1" d="M209.8,281.02v2.61h-0.35v-12.29h0.35v6.48c0.49-1.6,1.94-2.81,3.89-2.81c2.44,0,4.21,1.95,4.21,4.39v0.03
			c0,2.44-1.77,4.4-4.21,4.4C211.74,283.84,210.29,282.62,209.8,281.02z M217.53,279.46v-0.03c0-2.24-1.55-4.08-3.86-4.08
			c-2.29,0-3.89,1.87-3.89,4.06v0.03c0,2.17,1.62,4.06,3.89,4.06C215.98,283.5,217.53,281.71,217.53,279.46z"/>
	</g>
	<g>
		<g>
			<path class="st2" d="M79.07,254.85v-12.9h1.64v12.74c0,5.2,2.81,8.2,7.47,8.2c4.48,0,7.35-2.71,7.35-8.04v-12.9h1.64v12.71
				c0,6.34-3.69,9.71-9.05,9.71C82.82,264.38,79.07,261.03,79.07,254.85z"/>
			<path class="st2" d="M126.18,241.96h9.11c2.49,0,4.51,0.73,5.74,1.96c0.91,0.91,1.42,2.08,1.42,3.47v0.06
				c0,3-1.95,4.51-3.75,5.23c2.65,0.69,4.98,2.21,4.98,5.27v0.06c0,3.69-3.15,6.02-7.92,6.02h-9.59V241.96z M140.79,247.54
				c0-2.43-1.99-4.07-5.52-4.07h-7.44v8.67h7.28c3.31,0,5.68-1.61,5.68-4.54V247.54z M135.3,253.66h-7.47v8.86h8.01
				c3.78,0,6.18-1.73,6.18-4.51v-0.06C142.02,255.23,139.65,253.66,135.3,253.66z"/>
			<path class="st2" d="M173.86,241.96h1.55l15.23,19.2v-19.2h1.58v22.07h-1.23l-15.55-19.61v19.61h-1.58V241.96z"/>
			<path class="st2" d="M197.8,253.06v-0.06c0-6.02,4.45-11.42,11.13-11.42c6.69,0,11.07,5.33,11.07,11.35v0.06
				c0,6.02-4.45,11.42-11.13,11.42C202.18,264.41,197.8,259.08,197.8,253.06z M218.3,253.06v-0.06c0-5.46-3.97-9.93-9.43-9.93
				s-9.37,4.41-9.37,9.87v0.06c0,5.46,3.97,9.93,9.43,9.93C214.39,262.93,218.3,258.51,218.3,253.06z"/>
		</g>
		<path class="st2" d="M114.08,254.6c3.72-0.5,6.46-2.62,6.46-6.31v-0.06c0-1.58-0.63-3.06-1.67-4.1c-1.32-1.32-3.5-2.18-6.21-2.18
			h-9.27v22.07h1.64v-9.14h0v-1.48h0v-9.93h7.54c4,0,6.34,1.86,6.34,4.82v0.06c0,3.18-2.74,5.05-6.43,5.05h-3.57v1.48h3.35
			l7.03,9.14h2.08L114.08,254.6z"/>
		<g>
			<polygon class="st2" points="165.58,260.02 167.4,264.03 169.2,264.03 167.34,260.02 			"/>
			<path class="st2" d="M164.6,257.86h1.75l-7.43-16.06h-1.58l-10.28,22.23h1.7l2.81-6.18h13.02L164.6,257.86z M152.26,256.37
				l5.83-12.77l5.8,12.77H152.26z"/>
		</g>
	</g>
</g>
</svg>
