<?xml version="1.0" encoding="utf-8"?>
<!-- Generator: Adobe Illustrator 23.0.1, SVG Export Plug-In . SVG Version: 6.00 Build 0)  -->
<svg version="1.1" id="Capa_1" xmlns="http://www.w3.org/2000/svg" xmlns:xlink="http://www.w3.org/1999/xlink" x="0px" y="0px"
	 viewBox="0 0 300 300" style="enable-background:new 0 0 300 300;" xml:space="preserve">
<style type="text/css">
	.st0{stroke:#000000;stroke-miterlimit:10;}
	.st1{fill:url(#SVGID_1_);}
	.st2{fill:#A8A8A7;}
	.st3{fill:#DBDEDD;}
</style>
<rect x="2.5" class="st0" width="295" height="300.5"/>
<g>
	<g>
		<linearGradient id="SVGID_1_" gradientUnits="userSpaceOnUse" x1="149.5944" y1="233.154" x2="149.5944" y2="7.567">
			<stop  offset="0" style="stop-color:#C4C4C4"/>
			<stop  offset="0.4413" style="stop-color:#3E3E3E"/>
			<stop  offset="1" style="stop-color:#FFFFFF"/>
		</linearGradient>
		<path class="st1" d="M149.59,188.88c7.01,0,13.79-3.57,19.08-10.04c6-7.34,9.31-17.29,9.31-27.99V39.86V39.7h-2.46v0.15v110.99
			c0,9.99-3.19,19.63-8.75,26.43c-2.79,3.41-8.73,9.14-17.18,9.14c-8.44,0-14.38-5.73-17.17-9.14c-5.56-6.8-8.75-16.44-8.75-26.43
			V35.11v-0.15h-2.46v0.15v115.74c0,10.7,3.3,20.65,9.3,27.99C135.81,185.32,142.58,188.88,149.59,188.88z M149.59,198.72
			c21.08,0,38.23-21.47,38.23-47.87V31.18v-0.15h-2.46v0.15v119.68c0,1.28-0.04,2.56-0.13,3.83c-0.06,1.02-0.16,2.04-0.28,3.05
			c0,0.01,0,0.02-0.01,0.03c-0.18,1.49-0.41,2.98-0.71,4.43c-0.58,2.88-1.38,5.67-2.4,8.33c-0.25,0.66-0.51,1.31-0.79,1.95
			c-0.17,0.4-0.35,0.8-0.53,1.2c-0.14,0.32-0.29,0.62-0.44,0.92c-4.29,8.83-10.88,15.67-18.71,19.14c-0.27,0.12-0.53,0.24-0.8,0.34
			c-0.24,0.1-0.47,0.19-0.71,0.28c-0.06,0.03-0.13,0.05-0.19,0.08c-0.23,0.09-0.46,0.17-0.7,0.25c-0.02,0.01-0.04,0.02-0.06,0.02
			c-0.23,0.08-0.46,0.16-0.69,0.23c-0.08,0.02-0.16,0.04-0.23,0.07c-0.24,0.08-0.47,0.15-0.71,0.21c-0.28,0.08-0.56,0.16-0.84,0.22
			c-0.26,0.07-0.51,0.13-0.76,0.18c-0.35,0.07-0.71,0.14-1.06,0.21c-0.24,0.04-0.47,0.08-0.71,0.12c-0.66,0.11-1.33,0.18-2.01,0.23
			c-0.19,0.02-0.38,0.03-0.57,0.05c-0.58,0.03-1.15,0.05-1.73,0.05c-0.58,0-1.15-0.02-1.73-0.05c-0.19-0.01-0.38-0.03-0.57-0.05
			c-0.68-0.05-1.34-0.13-2.01-0.23c-0.24-0.03-0.47-0.07-0.71-0.12c-0.35-0.06-0.71-0.13-1.06-0.21c-0.26-0.05-0.51-0.11-0.76-0.18
			c-0.28-0.06-0.56-0.14-0.84-0.22c-0.24-0.06-0.47-0.13-0.71-0.21c-0.07-0.02-0.15-0.04-0.23-0.07c-0.23-0.07-0.46-0.15-0.69-0.23
			c-0.02-0.01-0.04-0.02-0.06-0.02c-0.24-0.08-0.47-0.16-0.7-0.25c-0.06-0.02-0.13-0.05-0.19-0.08c-0.24-0.09-0.47-0.18-0.71-0.28
			c-0.27-0.1-0.54-0.22-0.8-0.34c-7.55-3.34-13.95-9.81-18.23-18.18c-0.11-0.22-0.22-0.43-0.33-0.65c-0.11-0.22-0.21-0.43-0.31-0.65
			c-0.13-0.27-0.26-0.54-0.38-0.81c-0.29-0.63-0.57-1.28-0.83-1.93c-0.13-0.33-0.26-0.66-0.38-0.99c-0.77-1.99-1.41-4.05-1.92-6.17
			c0,0,0-0.01,0-0.01c-0.18-0.71-0.34-1.43-0.48-2.15c-0.08-0.36-0.15-0.73-0.21-1.09c-0.01,0-0.01-0.01-0.01-0.02
			c-0.2-1.1-0.36-2.2-0.5-3.32c-0.05-0.38-0.09-0.77-0.13-1.16c-0.06-0.63-0.11-1.27-0.15-1.92c-0.09-1.26-0.13-2.54-0.13-3.83
			V34.38v-0.15h-2.46v0.15v116.47C111.37,177.25,128.52,198.72,149.59,198.72z M116.56,156.34c0.02,0.14,0.03,0.29,0.05,0.44
			c0.06,0.56,0.13,1.11,0.21,1.67c0,0.02,0,0.03,0,0.04c0.15,1.04,0.32,2.07,0.52,3.08c0.07,0.35,0.14,0.68,0.21,1.02
			c0.15,0.68,0.32,1.35,0.49,2.01c0.13,0.5,0.27,0.99,0.41,1.48c0.06,0.23,0.13,0.45,0.21,0.68c0.12,0.39,0.24,0.77,0.37,1.16
			c0.09,0.28,0.19,0.55,0.28,0.82c0.12,0.33,0.24,0.65,0.36,0.97c0.12,0.32,0.25,0.65,0.38,0.96c1.69,4.14,3.92,7.94,6.65,11.28
			c4.88,5.97,10.91,9.84,17.37,11.25c0.25,0.05,0.52,0.11,0.78,0.16c0.26,0.05,0.52,0.09,0.78,0.13c0.26,0.04,0.52,0.08,0.78,0.11
			c0.21,0.02,0.41,0.05,0.62,0.07c0.17,0.02,0.33,0.04,0.51,0.05c0.15,0.02,0.31,0.02,0.46,0.04c0.26,0.01,0.53,0.03,0.79,0.03
			c0.26,0.01,0.53,0.01,0.79,0.01c0.27,0,0.53,0,0.8-0.01c0.27-0.01,0.53-0.02,0.79-0.03c0.15-0.01,0.31-0.02,0.46-0.04
			c0.17-0.01,0.34-0.02,0.51-0.05c0.21-0.02,0.41-0.04,0.62-0.07c0.26-0.03,0.52-0.07,0.78-0.11c0.26-0.04,0.52-0.08,0.78-0.13
			c0.26-0.05,0.52-0.1,0.78-0.16c6.47-1.41,12.5-5.28,17.37-11.25c3.14-3.84,5.61-8.29,7.36-13.15c0.02-0.03,0.02-0.06,0.03-0.1
			c0.09-0.26,0.19-0.52,0.28-0.79c0.15-0.44,0.29-0.88,0.43-1.34c0.4-1.3,0.75-2.63,1.05-3.99c0.3-1.34,0.54-2.71,0.74-4.11
			c0.01-0.01,0.01-0.03,0.01-0.04c0.1-0.69,0.18-1.4,0.25-2.11c0.18-1.81,0.27-3.64,0.27-5.49V27.72v-0.15h-2.46v0.15v123.13
			c0,11.27-3.5,21.76-9.86,29.54c-5.77,7.06-13.22,10.95-20.99,10.95c-7.76,0-15.21-3.89-20.98-10.95
			c-6.36-7.78-9.86-18.27-9.86-29.54V28.99v-0.15h-2.46v0.15v121.86c0,1.6,0.07,3.18,0.2,4.74
			C116.51,155.84,116.54,156.09,116.56,156.34z M106.45,150.85c0,3.64,0.3,7.2,0.88,10.64c0.14,0.86,0.31,1.71,0.48,2.55
			c0.71,3.37,1.68,6.62,2.9,9.69c0.45,1.16,0.94,2.29,1.46,3.39c0.52,1.11,1.07,2.19,1.65,3.24c0.19,0.35,0.39,0.7,0.59,1.04
			c0.4,0.69,0.82,1.37,1.24,2.03c0.43,0.66,0.87,1.32,1.32,1.96c0.45,0.63,0.92,1.26,1.39,1.87c0.24,0.31,0.48,0.6,0.72,0.91
			c0.74,0.9,1.49,1.76,2.27,2.59c0.26,0.28,0.53,0.55,0.79,0.82c7.46,7.53,17.01,12.05,27.44,12.05c23.83,0,43.15-23.63,43.15-52.79
			V35.22h-0.01v-0.96h-2.45v0.15v116.45c0,17.78-7.49,33.44-18.77,42.39c-1.1,0.88-2.24,1.68-3.41,2.43
			c-0.58,0.37-1.18,0.73-1.78,1.06c-0.6,0.33-1.21,0.65-1.83,0.95c-0.31,0.15-0.62,0.3-0.93,0.44c-0.62,0.29-1.25,0.55-1.89,0.79
			c-0.63,0.24-1.28,0.47-1.93,0.68c-0.65,0.21-1.31,0.4-1.97,0.57c-2.64,0.67-5.39,1.02-8.19,1.02c-2.8,0-5.54-0.35-8.19-1.02
			c-0.66-0.17-1.31-0.35-1.96-0.57c-0.65-0.21-1.3-0.43-1.93-0.68c-0.64-0.25-1.27-0.51-1.89-0.79c-0.32-0.14-0.62-0.28-0.93-0.44
			c-0.62-0.3-1.22-0.62-1.83-0.95c-0.6-0.33-1.19-0.69-1.78-1.06c-1.17-0.74-2.31-1.55-3.41-2.43
			c-11.28-8.95-18.77-24.61-18.77-42.39V39.3v-0.15h-2.52v0.15h0.06V150.85z M149.59,179.05c8.78,0,18.55-11.58,18.55-28.19V60.19
			v-0.15h-2.46v0.15v90.66c0,14.73-8.49,25.73-16.09,25.73c-7.59,0-16.08-11-16.08-25.73V23.79v-0.15h-2.46v0.15v127.07
			C131.05,167.47,140.82,179.05,149.59,179.05z M149.59,183.96c12.72,0,23.47-15.16,23.47-33.11V46.41v-0.15h-2.46v0.15v104.44
			c0,8.88-2.78,17.38-7.64,23.32c-2.24,2.74-6.96,7.33-13.37,7.33c-6.41,0-11.13-4.59-13.36-7.33c-4.86-5.94-7.64-14.44-7.64-23.32
			V29.24v-0.15h-2.46v0.15v121.61C126.13,168.8,136.87,183.96,149.59,183.96z M219.79,13.8v0.15v136.9
			c0,20.33-6.66,39.66-18.74,54.45c-6.48,7.93-14.16,14.17-22.8,18.53c-9.02,4.56-18.67,6.86-28.66,6.86
			c-9.99,0-19.63-2.31-28.66-6.86c-8.64-4.36-16.31-10.6-22.79-18.53c-12.09-14.79-18.74-34.13-18.74-54.45V24.77v-0.15h-2.46v0.15
			v126.08c0,20.89,6.85,40.77,19.3,56c6.7,8.2,14.64,14.65,23.59,19.17c9.37,4.73,19.38,7.13,29.76,7.13
			c10.39,0,20.4-2.4,29.77-7.13c8.95-4.52,16.89-10.97,23.59-19.17c12.44-15.23,19.3-35.12,19.3-56V13.95V13.8H219.79z
			 M149.59,208.56c13.03,0,25.22-6.13,34.32-17.27c8.86-10.85,13.75-25.2,13.75-40.44V38.59v-0.15h-2.46v112.42
			c0,14.67-4.69,28.48-13.19,38.88c-1.08,1.32-2.2,2.56-3.36,3.73c-0.58,0.58-1.17,1.15-1.78,1.7c-7.83,7.1-17.3,10.94-27.27,10.94
			c-9.97,0-19.44-3.84-27.27-10.94c-0.6-0.54-1.2-1.11-1.78-1.7c-1.16-1.17-2.29-2.41-3.37-3.73c-8.5-10.4-13.19-24.22-13.19-38.88
			V34.62h-0.06v-0.04h-2.4v0.15v116.12c0,15.23,4.88,29.59,13.74,40.44C124.38,202.43,136.57,208.56,149.59,208.56z M122.04,221.63
			c8.68,4.38,17.95,6.6,27.55,6.6c9.61,0,18.88-2.22,27.56-6.6c8.33-4.2,15.74-10.23,22-17.89c11.73-14.35,18.19-33.13,18.19-52.89
			V7.72V7.57h-2.46v0.15v143.13c0,19.2-6.26,37.43-17.63,51.34c-6.04,7.39-13.18,13.2-21.2,17.25c-8.33,4.21-17.23,6.34-26.45,6.34
			c-9.22,0-18.11-2.13-26.44-6.34c-8.03-4.05-15.16-9.86-21.21-17.25c-11.37-13.92-17.63-32.15-17.63-51.34V7.72V7.57h-2.46v0.15
			v143.13c0,19.75,6.46,38.54,18.19,52.89C106.31,211.41,113.71,217.43,122.04,221.63z M124.26,217.25
			c7.98,4.03,16.5,6.07,25.33,6.07c8.83,0,17.36-2.04,25.33-6.07c7.72-3.89,14.58-9.48,20.41-16.62
			c11.01-13.47,17.08-31.15,17.08-49.78V21.49v-0.15h-2.46v0.15v129.36c0,18.06-5.87,35.19-16.52,48.22
			c-11.48,14.05-27.05,21.78-43.84,21.78s-32.35-7.73-43.83-21.78c-10.65-13.04-16.52-30.16-16.52-48.22V15.31v-0.15h-2.46v0.15
			v135.54c0,18.62,6.07,36.3,17.08,49.78C109.68,207.75,116.55,213.35,124.26,217.25z M149.59,213.48
			c14.54,0,28.08-6.77,38.12-19.07c9.58-11.72,14.86-27.19,14.86-43.55V32.64v-0.15h-2.46v0.15v118.21c0,15.8-5.08,30.72-14.3,41.99
			c-0.6,0.73-1.21,1.45-1.83,2.13c-0.46,0.52-0.93,1.02-1.42,1.51c-0.16,0.17-0.33,0.34-0.49,0.5c-4.63,4.64-9.85,8.19-15.46,10.56
			c-0.96,0.41-1.93,0.78-2.91,1.12c-4.52,1.55-9.25,2.35-14.11,2.35c-4.74,0-9.36-0.76-13.79-2.24c-1.21-0.4-2.4-0.86-3.57-1.37
			c-5.48-2.37-10.58-5.87-15.12-10.42c-1.3-1.3-2.55-2.68-3.74-4.15c-9.22-11.28-14.3-26.2-14.3-41.99V30.23v-0.15h-2.46v0.15
			v120.63c0,16.36,5.28,31.83,14.86,43.55C121.52,206.7,135.06,213.48,149.59,213.48z M111.97,202.28c0.93,0.94,1.89,1.83,2.86,2.69
			c0.39,0.34,0.78,0.68,1.18,1.01c0.4,0.33,0.8,0.65,1.2,0.97c1.21,0.95,2.44,1.85,3.7,2.68c0.63,0.42,1.27,0.82,1.91,1.21
			c0.22,0.13,0.43,0.26,0.64,0.38c0.43,0.26,0.87,0.5,1.3,0.74c7.63,4.21,16.06,6.43,24.83,6.43c16.04,0,30.93-7.41,41.94-20.88
			c10.29-12.6,15.97-29.18,15.97-46.67V26.74v-0.15h-2.46v0.15v124.11c0,16.93-5.48,32.95-15.41,45.11
			c-10.53,12.88-24.75,19.98-40.03,19.98c-15.28,0-29.5-7.09-40.02-19.98c-9.94-12.16-15.41-28.18-15.41-45.11V23.83v-0.15h-2.46
			v0.15v127.02c0,17.49,5.67,34.07,15.97,46.67C109.04,199.2,110.47,200.79,111.97,202.28z"/>
	</g>
	<g>
		<path class="st2" d="M146.57,277.08h0.37v2.25c0.26-1.12,1.46-2.46,3.03-2.46c1.91,0,2.88,1.19,3.19,2.61
			c0.33-1.26,1.56-2.61,3.14-2.61c1.95,0,3.3,1.3,3.3,3.79v5.19h-0.37v-5.16c0-2.28-1.21-3.47-2.95-3.47
			c-1.51,0-3.02,1.51-3.02,3.51v5.12h-0.37v-5.16c0-2.28-1.21-3.47-2.95-3.47c-1.51,0-3.02,1.51-3.02,3.51v5.12h-0.37V277.08z"/>
		<path class="st2" d="M162.15,281.47v-0.04c0-2.6,1.77-4.56,4.21-4.56c2.77,0,4.03,2.44,4.03,4.63v0.07h-7.84
			c0.07,2.53,1.84,4.14,4,4.14c1.35,0,2.54-0.79,3.24-1.77l0.3,0.21c-0.75,1.09-2.02,1.91-3.56,1.91
			C164.13,286.06,162.15,284.29,162.15,281.47z M169.99,281.24c-0.07-2-1.33-4.02-3.65-4.02c-2.17,0-3.7,1.72-3.79,4.02H169.99z"/>
		<path class="st2" d="M172.41,281.48v-0.04c0-2.54,1.84-4.58,4.38-4.58c2.04,0,3.54,1.26,4.05,2.93v-6.75h0.37v12.81h-0.37v-2.72
			c-0.51,1.67-2.02,2.93-4.05,2.93C174.25,286.06,172.41,284.03,172.41,281.48z M180.86,281.48v-0.04c0-2.26-1.68-4.23-4.05-4.23
			c-2.4,0-4.02,1.86-4.02,4.21v0.04c0,2.33,1.61,4.25,4.02,4.25C179.2,285.71,180.86,283.77,180.86,281.48z"/>
		<path class="st2" d="M184.49,273.57h0.54v1h-0.54V273.57z M184.58,277.08h0.37v8.77h-0.37V277.08z"/>
		<path class="st2" d="M187.58,283.43v-0.04c0-1.84,1.72-2.79,3.91-2.79c1.23,0,2.42,0.23,3.3,0.54v-0.74
			c0-2.12-1.26-3.12-3.31-3.12c-1.09,0-2,0.3-2.91,0.74l-0.14-0.32c0.96-0.47,1.93-0.77,3.07-0.77c1.21,0,2.16,0.32,2.81,0.97
			c0.54,0.54,0.86,1.4,0.86,2.49v5.46h-0.37v-2.07c-0.37,1.02-1.68,2.28-3.93,2.28C189.14,286.06,187.58,285.17,187.58,283.43z
			 M194.79,282.64v-1.12c-0.93-0.35-1.95-0.56-3.28-0.56c-1.98,0-3.54,0.81-3.54,2.42v0.03c0,1.54,1.37,2.3,2.91,2.3
			C193.23,285.71,194.79,284.2,194.79,282.64z"/>
		<path class="st2" d="M198.35,273.05h0.37v12.81h-0.37V273.05z"/>
		<path class="st2" d="M201.35,283.43v-0.04c0-1.84,1.72-2.79,3.91-2.79c1.23,0,2.42,0.23,3.3,0.54v-0.74
			c0-2.12-1.26-3.12-3.31-3.12c-1.09,0-2,0.3-2.91,0.74l-0.14-0.32c0.96-0.47,1.93-0.77,3.07-0.77c1.21,0,2.16,0.32,2.81,0.97
			c0.54,0.54,0.86,1.4,0.86,2.49v5.46h-0.37v-2.07c-0.37,1.02-1.68,2.28-3.93,2.28C202.91,286.06,201.35,285.17,201.35,283.43z
			 M208.56,282.64v-1.12c-0.93-0.35-1.95-0.56-3.28-0.56c-1.98,0-3.54,0.81-3.54,2.42v0.03c0,1.54,1.37,2.3,2.91,2.3
			C207,285.71,208.56,284.2,208.56,282.64z"/>
		<path class="st2" d="M212.38,283.13v2.72h-0.37v-12.81h0.37v6.75c0.51-1.67,2.02-2.93,4.05-2.93c2.54,0,4.39,2.03,4.39,4.58v0.04
			c0,2.54-1.84,4.58-4.39,4.58C214.4,286.06,212.89,284.8,212.38,283.13z M220.43,281.5v-0.04c0-2.33-1.61-4.25-4.02-4.25
			c-2.39,0-4.05,1.95-4.05,4.23v0.04c0,2.26,1.68,4.23,4.05,4.23C218.82,285.71,220.43,283.85,220.43,281.5z"/>
	</g>
	<g>
		<g>
			<path class="st3" d="M76.19,255.87v-13.44h1.71v13.27c0,5.42,2.92,8.54,7.79,8.54c4.67,0,7.65-2.83,7.65-8.38v-13.44h1.71v13.24
				c0,6.6-3.84,10.12-9.43,10.12C80.1,265.79,76.19,262.31,76.19,255.87z"/>
			<path class="st3" d="M125.27,242.44h9.49c2.6,0,4.7,0.76,5.98,2.04c0.95,0.95,1.48,2.17,1.48,3.61v0.07
				c0,3.12-2.04,4.7-3.91,5.45c2.76,0.72,5.19,2.3,5.19,5.49v0.07c0,3.84-3.29,6.27-8.25,6.27h-9.99V242.44z M140.48,248.25
				c0-2.53-2.07-4.24-5.75-4.24h-7.75v9.03h7.59c3.45,0,5.91-1.68,5.91-4.73V248.25z M134.76,254.62h-7.79v9.23h8.34
				c3.94,0,6.44-1.81,6.44-4.7v-0.07C141.76,256.27,139.3,254.62,134.76,254.62z"/>
			<path class="st3" d="M174.94,242.44h1.61l15.87,20.01v-20.01h1.64v23h-1.28L176.58,245v20.43h-1.64V242.44z"/>
			<path class="st3" d="M199.87,254v-0.07c0-6.27,4.63-11.89,11.6-11.89c6.96,0,11.53,5.55,11.53,11.83v0.07
				c0,6.27-4.63,11.89-11.6,11.89S199.87,260.27,199.87,254z M221.23,254v-0.07c0-5.68-4.14-10.35-9.82-10.35s-9.76,4.6-9.76,10.28
				v0.07c0,5.68,4.14,10.35,9.82,10.35C217.15,264.28,221.23,259.68,221.23,254z"/>
		</g>
		<path class="st3" d="M112.65,255.61c3.88-0.53,6.73-2.73,6.73-6.57v-0.07c0-1.64-0.66-3.19-1.74-4.27
			c-1.38-1.38-3.65-2.27-6.47-2.27h-9.66v23h1.71v-9.53h0v-1.54h0v-10.35h7.85c4.17,0,6.6,1.94,6.6,5.03v0.07
			c0,3.32-2.86,5.26-6.7,5.26h-3.72v1.54h3.49l7.33,9.53h2.17L112.65,255.61z"/>
		<g>
			<polygon class="st3" points="166.31,261.26 168.2,265.43 170.08,265.43 168.15,261.26 			"/>
			<path class="st3" d="M165.29,259.01h1.82l-7.74-16.74h-1.64l-10.71,23.16h1.77l2.92-6.44h13.57L165.29,259.01z M152.44,257.45
				l6.08-13.3l6.04,13.3H152.44z"/>
		</g>
	</g>
</g>
</svg>
