<?xml version="1.0" encoding="utf-8"?>
<!-- Generator: Adobe Illustrator 23.0.1, SVG Export Plug-In . SVG Version: 6.00 Build 0)  -->
<svg version="1.1" xmlns="http://www.w3.org/2000/svg" xmlns:xlink="http://www.w3.org/1999/xlink" x="0px" y="0px"
	 viewBox="0 0 300 300" style="enable-background:new 0 0 300 300;" xml:space="preserve">
<style type="text/css">
	.st0{display:none;}
	.st1{display:inline;stroke:#000000;stroke-miterlimit:10;}
	.st2{display:inline;}
	.st3{fill:#DBDEDD;}
	.st4{fill:#A8A8A7;}
	.st5{fill:#9C9C9C;}
	.st6{fill:#606060;}
	.st7{display:inline;fill:#9C9C9C;}
	.st8{font-family:'OpenSans-CondensedLight';}
	.st9{font-size:13.7734px;}
	.st10{display:inline;fill:#606060;}
	.st11{fill:#FFFFFF;}
</style>
<g id="Capa_1" class="st0">
	<rect x="2.5" y="0" class="st1" width="295" height="300.5"/>
	<g class="st2">
		<g>
			<g>
				<path class="st3" d="M37.5,148.9v-13.4h1.7v13.3c0,5.4,2.9,8.5,7.8,8.5c4.7,0,7.7-2.8,7.7-8.4v-13.4h1.7v13.2
					c0,6.6-3.8,10.1-9.4,10.1C41.4,158.9,37.5,155.4,37.5,148.9z"/>
				<path class="st3" d="M86.6,135.5H96c2.6,0,4.7,0.8,6,2c0.9,0.9,1.5,2.2,1.5,3.6v0.1c0,3.1-2,4.7-3.9,5.4
					c2.8,0.7,5.2,2.3,5.2,5.5v0.1c0,3.8-3.3,6.3-8.2,6.3h-10L86.6,135.5L86.6,135.5z M101.8,141.3c0-2.5-2.1-4.2-5.8-4.2h-7.8v9h7.6
					C99.3,146.1,101.8,144.4,101.8,141.3L101.8,141.3z M96,147.7h-7.8v9.2h8.3c3.9,0,6.4-1.8,6.4-4.7v-0.1
					C103,149.3,100.6,147.7,96,147.7z"/>
				<path class="st3" d="M136.2,135.5h1.6l15.9,20v-20h1.6v23h-1.3l-16.2-20.4v20.4h-1.6V135.5z"/>
				<path class="st3" d="M161.1,147.1L161.1,147.1c0-6.3,4.6-12,11.6-12c7,0,11.5,5.6,11.5,11.8v0.1c0,6.3-4.6,11.9-11.6,11.9
					S161.1,153.3,161.1,147.1z M182.5,147.1L182.5,147.1c0-5.8-4.1-10.4-9.8-10.4s-9.8,4.6-9.8,10.3v0.1c0,5.7,4.1,10.4,9.8,10.4
					S182.5,152.8,182.5,147.1z"/>
			</g>
			<path class="st3" d="M73.9,148.7c3.9-0.5,6.7-2.7,6.7-6.6V142c0-1.6-0.7-3.2-1.7-4.3c-1.4-1.4-3.7-2.3-6.5-2.3h-9.7v23h1.7V149
				l0,0v-1.5l0,0v-10.4h7.8c4.2,0,6.6,1.9,6.6,5v0.1c0,3.3-2.9,5.3-6.7,5.3h-3.7v1.5H72l7.3,9.5h2.2L73.9,148.7z"/>
			<g>
				<polygon class="st3" points="127.6,154.3 129.5,158.5 131.4,158.5 129.4,154.3 				"/>
				<path class="st3" d="M126.6,152.1h1.8l-7.7-16.7H119l-10.7,23.2h1.8l2.9-6.4L126.6,152.1L126.6,152.1z M113.7,150.5l6.1-13.3
					l6,13.3H113.7z"/>
			</g>
		</g>
	</g>
	<g class="st2">
		<path class="st4" d="M193.2,147.5h0.4v2.2c0.3-1.1,1.5-2.5,3-2.5c1.9,0,2.9,1.2,3.2,2.6c0.3-1.3,1.6-2.6,3.1-2.6
			c1.9,0,3.3,1.3,3.3,3.8v5.2h-0.4v-5.2c0-2.3-1.2-3.5-2.9-3.5c-1.5,0-3,1.5-3,3.5v5.1h-0.4v-5.2c0-2.3-1.2-3.5-2.9-3.5
			c-1.5,0-3,1.5-3,3.5v5.1h-0.4L193.2,147.5L193.2,147.5z"/>
		<path class="st4" d="M208.8,151.9L208.8,151.9c0-2.6,1.8-4.6,4.2-4.6c2.8,0,4,2.4,4,4.6v0.1h-7.8c0.1,2.5,1.8,4.1,4,4.1
			c1.4,0,2.5-0.8,3.2-1.8l0.3,0.2c-0.8,1.1-2,1.9-3.6,1.9C210.8,156.5,208.8,154.7,208.8,151.9z M216.6,151.7c-0.1-2-1.3-4-3.6-4
			c-2.2,0-3.7,1.7-3.8,4H216.6z"/>
		<path class="st4" d="M219.1,151.9L219.1,151.9c0-2.6,1.8-4.6,4.4-4.6c2,0,3.5,1.3,4.1,2.9v-6.8h0.4v12.8h-0.4v-2.7
			c-0.5,1.7-2,2.9-4.1,2.9C220.9,156.5,219.1,154.5,219.1,151.9z M227.5,151.9L227.5,151.9c0-2.3-1.7-4.3-4.1-4.3
			c-2.4,0-4,1.9-4,4.2v0c0,2.3,1.6,4.2,4,4.2C225.9,156.2,227.5,154.2,227.5,151.9z"/>
		<path class="st4" d="M231.1,144h0.5v1h-0.5V144z M231.2,147.5h0.4v8.8h-0.4V147.5z"/>
		<path class="st4" d="M234.2,153.9L234.2,153.9c0-1.9,1.7-2.8,3.9-2.8c1.2,0,2.4,0.2,3.3,0.5v-0.7c0-2.1-1.3-3.1-3.3-3.1
			c-1.1,0-2,0.3-2.9,0.7l-0.1-0.3c1-0.5,1.9-0.8,3.1-0.8c1.2,0,2.2,0.3,2.8,1c0.5,0.5,0.9,1.4,0.9,2.5v5.5h-0.4v-2.1
			c-0.4,1-1.7,2.3-3.9,2.3C235.8,156.5,234.2,155.6,234.2,153.9z M241.4,153.1V152c-0.9-0.4-1.9-0.6-3.3-0.6c-2,0-3.5,0.8-3.5,2.4v0
			c0,1.5,1.4,2.3,2.9,2.3C239.9,156.2,241.4,154.6,241.4,153.1z"/>
		<path class="st4" d="M245,143.5h0.4v12.8H245V143.5z"/>
		<path class="st4" d="M248,153.9L248,153.9c0-1.9,1.7-2.8,3.9-2.8c1.2,0,2.4,0.2,3.3,0.5v-0.7c0-2.1-1.3-3.1-3.3-3.1
			c-1.1,0-2,0.3-2.9,0.7l-0.1-0.3c1-0.5,1.9-0.8,3.1-0.8c1.2,0,2.2,0.3,2.8,1c0.5,0.5,0.9,1.4,0.9,2.5v5.5h-0.4v-2.1
			c-0.4,1-1.7,2.3-3.9,2.3C249.6,156.5,248,155.6,248,153.9z M255.2,153.1V152c-0.9-0.4-1.9-0.6-3.3-0.6c-2,0-3.5,0.8-3.5,2.4v0
			c0,1.5,1.4,2.3,2.9,2.3C253.7,156.2,255.2,154.6,255.2,153.1z"/>
		<path class="st4" d="M259,153.6v2.7h-0.4v-12.8h0.4v6.8c0.5-1.7,2-2.9,4.1-2.9c2.5,0,4.4,2,4.4,4.6v0c0,2.5-1.8,4.6-4.4,4.6
			C261.1,156.5,259.5,155.2,259,153.6z M267.1,151.9L267.1,151.9c0-2.4-1.6-4.3-4-4.3c-2.4,0-4.1,2-4.1,4.2v0c0,2.3,1.7,4.2,4.1,4.2
			C265.5,156.2,267.1,154.3,267.1,151.9z"/>
	</g>
	<g class="st2">
		<g>
			<g>
				<path class="st5" d="M38.7,180.3v-13.4h1.7v13.3c0,5.4,2.9,8.5,7.8,8.5c4.7,0,7.7-2.8,7.7-8.4v-13.4h1.7v13.2
					c0,6.6-3.8,10.1-9.4,10.1C42.7,190.2,38.7,186.7,38.7,180.3z"/>
				<path class="st5" d="M87.8,166.8h9.5c2.6,0,4.7,0.8,6,2c0.9,0.9,1.5,2.2,1.5,3.6v0.1c0,3.1-2,4.7-3.9,5.4
					c2.8,0.7,5.2,2.3,5.2,5.5v0.1c0,3.8-3.3,6.3-8.2,6.3h-10L87.8,166.8L87.8,166.8z M103,172.6c0-2.5-2.1-4.2-5.8-4.2h-7.8v9h7.6
					C100.6,177.4,103,175.8,103,172.6L103,172.6z M97.3,179h-7.8v9.2h8.3c3.9,0,6.4-1.8,6.4-4.7v-0.1
					C104.3,180.7,101.9,179,97.3,179z"/>
				<path class="st5" d="M137.5,166.8h1.6l15.9,20v-20h1.6v23h-1.3l-16.2-20.4v20.4h-1.6V166.8z"/>
				<path class="st5" d="M162.4,178.4L162.4,178.4c0-6.3,4.6-12,11.6-12c7,0,11.5,5.6,11.5,11.8v0.1c0,6.3-4.6,11.9-11.6,11.9
					S162.4,184.7,162.4,178.4z M183.8,178.4L183.8,178.4c0-5.8-4.1-10.4-9.8-10.4s-9.8,4.6-9.8,10.3v0.1c0,5.7,4.1,10.4,9.8,10.4
					S183.8,184.1,183.8,178.4z"/>
			</g>
			<path class="st5" d="M75.2,180c3.9-0.5,6.7-2.7,6.7-6.6v-0.1c0-1.6-0.7-3.2-1.7-4.3c-1.4-1.4-3.7-2.3-6.5-2.3h-9.7v23h1.7v-9.5
				l0,0v-1.5l0,0v-10.4h7.8c4.2,0,6.6,1.9,6.6,5v0.1c0,3.3-2.9,5.3-6.7,5.3h-3.7v1.5h3.5l7.3,9.5h2.2L75.2,180z"/>
			<g>
				<polygon class="st5" points="128.9,185.7 130.8,189.8 132.6,189.8 130.7,185.7 				"/>
				<path class="st5" d="M127.8,183.4h1.8l-7.7-16.7h-1.6l-10.7,23.2h1.8l2.9-6.4L127.8,183.4L127.8,183.4z M115,181.8l6.1-13.3
					l6,13.3H115z"/>
			</g>
		</g>
	</g>
	<g class="st2">
		<g>
			<g>
				<path class="st6" d="M38.4,211.6v-13.4h1.7v13.3c0,5.4,2.9,8.5,7.8,8.5c4.7,0,7.7-2.8,7.7-8.4v-13.4h1.7v13.2
					c0,6.6-3.8,10.1-9.4,10.1C42.3,221.5,38.4,218,38.4,211.6z"/>
				<path class="st6" d="M87.5,198.2h9.5c2.6,0,4.7,0.8,6,2c0.9,0.9,1.5,2.2,1.5,3.6v0.1c0,3.1-2,4.7-3.9,5.4
					c2.8,0.7,5.2,2.3,5.2,5.5v0.1c0,3.8-3.3,6.3-8.2,6.3h-10L87.5,198.2L87.5,198.2z M102.7,204c0-2.5-2.1-4.2-5.8-4.2h-7.8v9h7.6
					C100.2,208.8,102.7,207.1,102.7,204L102.7,204z M96.9,210.3h-7.8v9.2h8.3c3.9,0,6.4-1.8,6.4-4.7v-0.1
					C103.9,212,101.5,210.3,96.9,210.3z"/>
				<path class="st6" d="M137.1,198.2h1.6l15.9,20v-20h1.6v23H155l-16.2-20.4v20.4h-1.6V198.2z"/>
				<path class="st6" d="M162.1,209.7L162.1,209.7c0-6.3,4.6-12,11.6-12c7,0,11.5,5.6,11.5,11.8v0.1c0,6.3-4.6,11.9-11.6,11.9
					S162.1,216,162.1,209.7z M183.4,209.7L183.4,209.7c0-5.8-4.1-10.4-9.8-10.4s-9.8,4.6-9.8,10.3v0.1c0,5.7,4.1,10.4,9.8,10.4
					S183.4,215.4,183.4,209.7z"/>
			</g>
			<path class="st6" d="M74.8,211.3c3.9-0.5,6.7-2.7,6.7-6.6v-0.1c0-1.6-0.7-3.2-1.7-4.3c-1.4-1.4-3.7-2.3-6.5-2.3h-9.7v23h1.7v-9.5
				l0,0v-1.5l0,0v-10.4h7.8c4.2,0,6.6,1.9,6.6,5v0.1c0,3.3-2.9,5.3-6.7,5.3h-3.7v1.5h3.5l7.3,9.5h2.2L74.8,211.3z"/>
			<g>
				<polygon class="st6" points="128.5,217 130.4,221.2 132.3,221.2 130.3,217 				"/>
				<path class="st6" d="M127.5,214.7h1.8l-7.7-16.7h-1.6l-10.7,23.2h1.8l2.9-6.4L127.5,214.7L127.5,214.7z M114.6,213.2l6.1-13.3
					l6,13.3H114.6z"/>
			</g>
		</g>
	</g>
	<text transform="matrix(1.2971 0 0 1 206.4294 179.6839)" class="st7 st8 st9">#FCFCFC</text>
	<text transform="matrix(1.2971 0 0 1 206.0906 218.931)" class="st10 st8 st9">#606060</text>
</g>
<g id="Capa_2" class="st0">
	<g class="st2">
		<path class="st11" d="M152.9,237.9c9.1,0,17.9-4.6,24.8-13c7.8-9.5,12.1-22.4,12.1-36.3v-144v-0.2h-3.2v0.2v144
			c0,13-4.1,25.5-11.4,34.3c-3.6,4.4-11.3,11.9-22.3,11.9c-11,0-18.7-7.4-22.3-11.9c-7.2-8.8-11.4-21.3-11.4-34.3V38.3v-0.2h-3.2
			v0.2v150.2c0,13.9,4.3,26.8,12.1,36.3C135.1,233.3,143.8,237.9,152.9,237.9z M152.9,250.7c27.4,0,49.6-27.9,49.6-62.1V33.2v-0.2
			h-3.2v0.2v155.3c0,1.7-0.1,3.3-0.2,5c-0.1,1.3-0.2,2.6-0.4,4c0,0,0,0,0,0c-0.2,1.9-0.5,3.9-0.9,5.7c-0.8,3.7-1.8,7.4-3.1,10.8
			c-0.3,0.9-0.7,1.7-1,2.5c-0.2,0.5-0.5,1-0.7,1.6c-0.2,0.4-0.4,0.8-0.6,1.2c-5.6,11.5-14.1,20.3-24.3,24.8c-0.4,0.2-0.7,0.3-1,0.4
			c-0.3,0.1-0.6,0.2-0.9,0.4c-0.1,0-0.2,0.1-0.2,0.1c-0.3,0.1-0.6,0.2-0.9,0.3c0,0-0.1,0-0.1,0c-0.3,0.1-0.6,0.2-0.9,0.3
			c-0.1,0-0.2,0.1-0.3,0.1c-0.3,0.1-0.6,0.2-0.9,0.3c-0.4,0.1-0.7,0.2-1.1,0.3c-0.3,0.1-0.7,0.2-1,0.2c-0.5,0.1-0.9,0.2-1.4,0.3
			c-0.3,0.1-0.6,0.1-0.9,0.2c-0.9,0.1-1.7,0.2-2.6,0.3c-0.2,0-0.5,0-0.7,0.1c-0.8,0-1.5,0.1-2.2,0.1s-1.5,0-2.2-0.1
			c-0.2,0-0.5,0-0.7-0.1c-0.9-0.1-1.7-0.2-2.6-0.3c-0.3,0-0.6-0.1-0.9-0.2c-0.5-0.1-0.9-0.2-1.4-0.3c-0.3-0.1-0.7-0.1-1-0.2
			c-0.4-0.1-0.7-0.2-1.1-0.3c-0.3-0.1-0.6-0.2-0.9-0.3c-0.1,0-0.2-0.1-0.3-0.1c-0.3-0.1-0.6-0.2-0.9-0.3c0,0-0.1,0-0.1,0
			c-0.3-0.1-0.6-0.2-0.9-0.3c-0.1,0-0.2-0.1-0.2-0.1c-0.3-0.1-0.6-0.2-0.9-0.4c-0.4-0.1-0.7-0.3-1-0.4c-9.8-4.3-18.1-12.7-23.7-23.6
			c-0.1-0.3-0.3-0.6-0.4-0.8s-0.3-0.6-0.4-0.8c-0.2-0.4-0.3-0.7-0.5-1.1c-0.4-0.8-0.7-1.7-1.1-2.5c-0.2-0.4-0.3-0.9-0.5-1.3
			c-1-2.6-1.8-5.3-2.5-8v0c-0.2-0.9-0.4-1.9-0.6-2.8c-0.1-0.5-0.2-0.9-0.3-1.4c0,0,0,0,0,0c-0.3-1.4-0.5-2.9-0.6-4.3
			c-0.1-0.5-0.1-1-0.2-1.5c-0.1-0.8-0.1-1.6-0.2-2.5c-0.1-1.6-0.2-3.3-0.2-5V37.4v-0.2h-3.2v0.2v151.1
			C103.3,222.8,125.6,250.7,152.9,250.7z M110.1,195.7c0,0.2,0,0.4,0.1,0.6c0.1,0.7,0.2,1.4,0.3,2.2c0,0,0,0,0,0.1
			c0.2,1.3,0.4,2.7,0.7,4c0.1,0.5,0.2,0.9,0.3,1.3c0.2,0.9,0.4,1.8,0.6,2.6c0.2,0.6,0.4,1.3,0.5,1.9c0.1,0.3,0.2,0.6,0.3,0.9
			c0.2,0.5,0.3,1,0.5,1.5c0.1,0.4,0.2,0.7,0.4,1.1c0.2,0.4,0.3,0.8,0.5,1.3s0.3,0.8,0.5,1.2c2.2,5.4,5.1,10.3,8.6,14.6
			c6.3,7.7,14.2,12.8,22.5,14.6c0.3,0.1,0.7,0.1,1,0.2c0.3,0.1,0.7,0.1,1,0.2c0.3,0.1,0.7,0.1,1,0.1c0.3,0,0.5,0.1,0.8,0.1
			c0.2,0,0.4,0.1,0.7,0.1c0.2,0,0.4,0,0.6,0.1c0.3,0,0.7,0,1,0c0.3,0,0.7,0,1,0c0.4,0,0.7,0,1,0c0.4,0,0.7,0,1,0
			c0.2,0,0.4,0,0.6-0.1c0.2,0,0.4,0,0.7-0.1c0.3,0,0.5-0.1,0.8-0.1c0.3,0,0.7-0.1,1-0.1c0.3-0.1,0.7-0.1,1-0.2
			c0.3-0.1,0.7-0.1,1-0.2c8.4-1.8,16.2-6.9,22.5-14.6c4.1-5,7.3-10.8,9.6-17.1c0,0,0-0.1,0-0.1c0.1-0.3,0.2-0.7,0.4-1
			c0.2-0.6,0.4-1.1,0.6-1.7c0.5-1.7,1-3.4,1.4-5.2c0.4-1.7,0.7-3.5,1-5.3c0,0,0,0,0-0.1c0.1-0.9,0.2-1.8,0.3-2.7
			c0.2-2.3,0.4-4.7,0.4-7.1V28.8v-0.2H193v0.2v159.8c0,14.6-4.5,28.2-12.8,38.3c-7.5,9.2-17.2,14.2-27.2,14.2
			c-10.1,0-19.7-5-27.2-14.2c-8.3-10.1-12.8-23.7-12.8-38.3V30.4v-0.2h-3.2v0.2v158.1c0,2.1,0.1,4.1,0.3,6.2
			C110,195,110.1,195.3,110.1,195.7z M97,188.5c0,4.7,0.4,9.3,1.1,13.8c0.2,1.1,0.4,2.2,0.6,3.3c0.9,4.4,2.2,8.6,3.8,12.6
			c0.6,1.5,1.2,3,1.9,4.4c0.7,1.4,1.4,2.8,2.1,4.2c0.2,0.5,0.5,0.9,0.8,1.3c0.5,0.9,1.1,1.8,1.6,2.6c0.6,0.9,1.1,1.7,1.7,2.5
			c0.6,0.8,1.2,1.6,1.8,2.4c0.3,0.4,0.6,0.8,0.9,1.2c1,1.2,1.9,2.3,2.9,3.4c0.3,0.4,0.7,0.7,1,1.1c9.7,9.8,22.1,15.6,35.6,15.6
			c30.9,0,56-30.7,56-68.5v-150h0v-1.2h-3.2v0.2v151.1c0,23.1-9.7,43.4-24.4,55c-1.4,1.1-2.9,2.2-4.4,3.2c-0.8,0.5-1.5,0.9-2.3,1.4
			s-1.6,0.8-2.4,1.2c-0.4,0.2-0.8,0.4-1.2,0.6c-0.8,0.4-1.6,0.7-2.5,1c-0.8,0.3-1.7,0.6-2.5,0.9c-0.8,0.3-1.7,0.5-2.6,0.7
			c-3.4,0.9-7,1.3-10.6,1.3c-3.6,0-7.2-0.5-10.6-1.3c-0.9-0.2-1.7-0.5-2.5-0.7c-0.8-0.3-1.7-0.6-2.5-0.9c-0.8-0.3-1.6-0.7-2.5-1
			c-0.4-0.2-0.8-0.4-1.2-0.6c-0.8-0.4-1.6-0.8-2.4-1.2c-0.8-0.4-1.5-0.9-2.3-1.4c-1.5-1-3-2-4.4-3.2c-14.6-11.6-24.4-31.9-24.4-55
			V43.8v-0.2h-3.3v0.2h0.1L97,188.5L97,188.5z M152.9,225.1c11.4,0,24.1-15,24.1-36.6V70.9v-0.2h-3.2v0.2v117.6
			c0,19.1-11,33.4-20.9,33.4c-9.8,0-20.9-14.3-20.9-33.4V23.7v-0.2h-3.2v0.2v164.9C128.9,210.1,141.6,225.1,152.9,225.1z
			 M152.9,231.5c16.5,0,30.5-19.7,30.5-43V53v-0.2h-3.2V53v135.5c0,11.5-3.6,22.6-9.9,30.3c-2.9,3.6-9,9.5-17.3,9.5
			c-8.3,0-14.4-6-17.3-9.5c-6.3-7.7-9.9-18.7-9.9-30.3V30.7v-0.2h-3.2v0.2v157.8C122.5,211.8,136.4,231.5,152.9,231.5z M244,10.7
			v0.2v177.7c0,26.4-8.6,51.5-24.3,70.7c-8.4,10.3-18.4,18.4-29.6,24c-11.7,5.9-24.2,8.9-37.2,8.9c-13,0-25.5-3-37.2-8.9
			c-11.2-5.7-21.2-13.8-29.6-24c-15.7-19.2-24.3-44.3-24.3-70.7V24.9v-0.2h-3.2v0.2v163.6c0,27.1,8.9,52.9,25,72.7
			c8.7,10.6,19,19,30.6,24.9c12.2,6.1,25.1,9.3,38.6,9.3c13.5,0,26.5-3.1,38.6-9.3c11.6-5.9,21.9-14.2,30.6-24.9
			c16.1-19.8,25-45.6,25-72.7V10.9v-0.2H244z M152.9,263.4c16.9,0,32.7-8,44.5-22.4c11.5-14.1,17.8-32.7,17.8-52.5V42.9v-0.2h-3.2
			v145.9c0,19-6.1,37-17.1,50.5c-1.4,1.7-2.9,3.3-4.4,4.8c-0.8,0.8-1.5,1.5-2.3,2.2c-10.2,9.2-22.4,14.2-35.4,14.2
			c-12.9,0-25.2-5-35.4-14.2c-0.8-0.7-1.6-1.4-2.3-2.2c-1.5-1.5-3-3.1-4.4-4.8c-11-13.5-17.1-31.4-17.1-50.5V37.7h-0.1v-0.1h-3.1
			v0.2v150.7c0,19.8,6.3,38.4,17.8,52.5C120.2,255.5,136,263.4,152.9,263.4z M117.2,280.4c11.3,5.7,23.3,8.6,35.8,8.6
			c12.5,0,24.5-2.9,35.8-8.6c10.8-5.5,20.4-13.3,28.5-23.2c15.2-18.6,23.6-43,23.6-68.6V2.8V2.6h-3.2v0.2v185.7
			c0,24.9-8.1,48.6-22.9,66.6c-7.8,9.6-17.1,17.1-27.5,22.4c-10.8,5.5-22.4,8.2-34.3,8.2s-23.5-2.8-34.3-8.2
			c-10.4-5.3-19.7-12.8-27.5-22.4c-14.8-18.1-22.9-41.7-22.9-66.6V2.8V2.6h-3.2v0.2v185.7c0,25.6,8.4,50,23.6,68.6
			C96.8,267.1,106.4,274.9,117.2,280.4z M120.1,274.7c10.4,5.2,21.4,7.9,32.9,7.9c11.5,0,22.5-2.6,32.9-7.9
			c10-5,18.9-12.3,26.5-21.6c14.3-17.5,22.2-40.4,22.2-64.6V20.7v-0.2h-3.2v0.2v167.9c0,23.4-7.6,45.7-21.4,62.6
			c-14.9,18.2-35.1,28.3-56.9,28.3s-42-10-56.9-28.3c-13.8-16.9-21.4-39.1-21.4-62.6V12.7v-0.2h-3.2v0.2v175.9
			c0,24.2,7.9,47.1,22.2,64.6C101.2,262.4,110.1,269.6,120.1,274.7z M152.9,269.8c18.9,0,36.4-8.8,49.5-24.7
			c12.4-15.2,19.3-35.3,19.3-56.5V35.1v-0.2h-3.2v0.2v153.4c0,20.5-6.6,39.9-18.6,54.5c-0.8,0.9-1.6,1.9-2.4,2.8
			c-0.6,0.7-1.2,1.3-1.8,2c-0.2,0.2-0.4,0.4-0.6,0.6c-6,6-12.8,10.6-20.1,13.7c-1.2,0.5-2.5,1-3.8,1.5c-5.9,2-12,3-18.3,3
			c-6.2,0-12.1-1-17.9-2.9c-1.6-0.5-3.1-1.1-4.6-1.8c-7.1-3.1-13.7-7.6-19.6-13.5c-1.7-1.7-3.3-3.5-4.9-5.4
			c-12-14.6-18.6-34-18.6-54.5V32v-0.2h-3.2V32v156.5c0,21.2,6.9,41.3,19.3,56.5C116.5,261,134.1,269.8,152.9,269.8z M104.1,255.3
			c1.2,1.2,2.5,2.4,3.7,3.5c0.5,0.4,1,0.9,1.5,1.3c0.5,0.4,1,0.8,1.6,1.3c1.6,1.2,3.2,2.4,4.8,3.5c0.8,0.5,1.6,1.1,2.5,1.6
			c0.3,0.2,0.6,0.3,0.8,0.5c0.6,0.3,1.1,0.6,1.7,1c9.9,5.5,20.8,8.3,32.2,8.3c20.8,0,40.1-9.6,54.4-27.1
			c13.4-16.4,20.7-37.9,20.7-60.6v-161v-0.2h-3.2v0.2v161.1c0,22-7.1,42.8-20,58.5C191.2,263.8,172.8,273,153,273
			s-38.3-9.2-51.9-25.9c-12.9-15.8-20-36.6-20-58.5V23.7v-0.2h-3.2v0.2v164.8c0,22.7,7.4,44.2,20.7,60.6
			C100.3,251.3,102.2,253.3,104.1,255.3z"/>
	</g>
</g>
<g id="VFX" class="st0">
	<g class="st2">
		<path class="st11" d="M292,224.6H127.8c-1.9,0-3.5-1.6-3.5-3.5s1.6-3.5,3.5-3.5h159.4l-53-161.2l-113.9-2.2l-79,79.3l105.3-1.1
			c0,0,0,0,0,0c1.9,0,3.5,1.5,3.5,3.5c0,1.9-1.5,3.5-3.5,3.5l-113.8,1.1c0,0,0,0,0,0c-1.4,0-2.7-0.8-3.2-2.1
			c-0.6-1.3-0.3-2.8,0.7-3.8l86.1-86.4c0.7-0.7,1.6-1,2.5-1l117.9,2.3c1.5,0,2.8,1,3.3,2.4L295.4,220c0.4,1.1,0.2,2.2-0.5,3.1
			S293.2,224.6,292,224.6z"/>
	</g>
	<g class="st2">
		<path class="st11" d="M164.2,278.3c-0.8,0-1.6-0.3-2.3-0.9L52.7,182.3c-0.8-0.7-1.2-1.6-1.2-2.6s0.4-2,1.2-2.6l109.3-95.1
			c1-0.9,2.5-1.1,3.7-0.5c1.2,0.6,2,1.8,2,3.2v190.3c0,1.4-0.8,2.6-2,3.2C165.2,278.2,164.7,278.3,164.2,278.3z M60.3,179.6
			l100.4,87.5V92.2L60.3,179.6z"/>
	</g>
	<g class="st2">
		<g>
			<path class="st11" d="M240.1,249.5c7.7,0,7.7-11.9,0-11.9C232.4,237.6,232.4,249.5,240.1,249.5L240.1,249.5z"/>
		</g>
	</g>
	<g class="st2">
		<g>
			<path class="st11" d="M261.6,249.5c7.7,0,7.7-11.9,0-11.9C253.9,237.6,253.9,249.5,261.6,249.5L261.6,249.5z"/>
		</g>
	</g>
	<g class="st2">
		<g>
			<path class="st11" d="M261.6,53.7c7.7,0,7.7-11.9,0-11.9C253.9,41.8,253.9,53.7,261.6,53.7L261.6,53.7z"/>
		</g>
	</g>
	<g class="st2">
		<g>
			<path class="st11" d="M10.2,142.2c7.7,0,7.7-11.9,0-11.9C2.6,130.2,2.5,142.2,10.2,142.2L10.2,142.2z"/>
		</g>
	</g>
	<g class="st2">
		<g>
			<path class="st11" d="M21.6,121c3.2,0,3.2-5,0-5C18.4,116,18.4,121,21.6,121L21.6,121z"/>
		</g>
	</g>
	<g class="st2">
		<g>
			<path class="st11" d="M270.4,68c3.2,0,3.2-5,0-5C267.2,63,267.2,68,270.4,68L270.4,68z"/>
		</g>
	</g>
	<g class="st2">
		<g>
			<path class="st11" d="M283.1,243.5c3.2,0,3.2-5,0-5C279.8,238.5,279.8,243.5,283.1,243.5L283.1,243.5z"/>
		</g>
	</g>
</g>
<g id="_x33_D" class="st0">
	<g class="st2">
		<path class="st11" d="M173.9,229.1c0.1,0,0.2-0.1,0.2-0.1c0.2-0.1,0.5-0.2,0.7-0.4l77.9-51c1.4-0.9,2.2-2.4,2.2-4l0-4.2
			c0,0,0,0,0,0l0.6-120.8c0.1-2.2-1.3-4.1-3.5-4.8c-0.1,0-0.2-0.1-0.3-0.1L129.5,14.8c0,0,0,0-0.1,0c-0.2,0-0.3,0-0.5-0.1
			c-0.2,0-0.3,0-0.5,0c0,0-0.1,0-0.1,0c-0.1,0-0.3,0-0.4,0c-0.2,0-0.3,0-0.5,0c-0.2,0-0.3,0.1-0.5,0.1c-0.1,0-0.3,0.1-0.4,0.1
			c-0.2,0.1-0.3,0.2-0.5,0.2c-0.1,0.1-0.2,0.1-0.3,0.1L43.6,66.6c-0.2,0.1-0.4,0.3-0.6,0.4c-0.3,0.2-0.5,0.5-0.7,0.7
			c-0.6,0.7-1,1.7-1,2.7c0,0.1,0,0.3,0,0.4v120.9c0,0,0,0,0,0.1c0,0.1,0,0.2,0,0.3c0,0.2,0,0.4,0.1,0.6c0,0.1,0.1,0.2,0.1,0.3
			c0,0.2,0.1,0.4,0.2,0.5c0,0.1,0.1,0.2,0.1,0.3c0.1,0.2,0.2,0.4,0.3,0.5c0,0.1,0.1,0.1,0.1,0.2c0,0,0,0.1,0.1,0.1
			c0,0.1,0.1,0.1,0.1,0.2c0.1,0.1,0.2,0.3,0.4,0.4c0,0,0.1,0.1,0.1,0.1c0.4,0.3,0.8,0.6,1.2,0.8c0.1,0,0.1,0,0.2,0.1
			c0.2,0.1,0.4,0.1,0.6,0.2c0,0,0.1,0,0.1,0L171,229.3c0.1,0,0.1,0,0.2,0c0.1,0,0.1,0,0.2,0c0.3,0.1,0.6,0.1,0.9,0.1
			c0.3,0,0.6,0,0.9-0.1c0.1,0,0.2,0,0.3-0.1C173.5,229.3,173.7,229.2,173.9,229.1z M245.3,163.4l-12.9-2.7c-2.6-0.5-5.2,1.1-5.8,3.7
			c-0.6,2.6,1.1,5.2,3.7,5.8l12.1,2.6l-65.4,42.9v-59.8l7.2,1.7c0.4,0.1,0.7,0.1,1.1,0.1c2.2,0,4.2-1.5,4.7-3.8
			c0.6-2.6-1-5.2-3.6-5.8l-9.4-2.2v-41.8l68.7-46.4L245.3,163.4z M123.5,28.3v14.1c0,2.7,2.2,4.9,4.9,4.9s4.9-2.2,4.9-4.9V25.7
			l105.5,25l-67.5,45.6L58.4,68.8L123.5,28.3z M167.3,105.3v38.3l-7.6-1.7c-2.6-0.6-5.2,1-5.8,3.6c-0.6,2.6,1,5.2,3.6,5.8l9.8,2.2
			v64.7l-110-28.7l11.2-8c2.2-1.6,2.7-4.6,1.1-6.8c-1.6-2.2-4.6-2.7-6.8-1.1l-12,8.6V77L167.3,105.3z"/>
		<path class="st11" d="M128.4,56.7c-2.7,0-4.9,2.2-4.9,4.9v14.5c0,2.7,2.2,4.9,4.9,4.9s4.9-2.2,4.9-4.9V61.6
			C133.3,58.9,131.1,56.7,128.4,56.7z"/>
		<path class="st11" d="M111.8,154.1c0.9,0,1.7-0.2,2.5-0.7l15-9.1l15.2,3.5c0.4,0.1,0.7,0.1,1.1,0.1c2.2,0,4.2-1.5,4.7-3.8
			c0.6-2.6-1-5.2-3.6-5.8l-13.3-3.1v-13.2c0-2.7-2.2-4.9-4.9-4.9s-4.9,2.2-4.9,4.9v14.3l-14.3,8.7c-2.3,1.4-3,4.4-1.6,6.7
			C108.5,153.3,110.1,154.1,111.8,154.1z"/>
		<path class="st11" d="M80.6,172.5c0.9,0,1.8-0.3,2.7-0.8l16.7-10.9c2.2-1.5,2.9-4.5,1.4-6.7c-1.5-2.2-4.5-2.9-6.7-1.4L78,163.6
			c-2.2,1.5-2.9,4.5-1.4,6.7C77.5,171.7,79.1,172.5,80.6,172.5z"/>
		<path class="st11" d="M197.7,161.4l16.7,4.3c0.4,0.1,0.8,0.2,1.2,0.2c2.2,0,4.1-1.4,4.7-3.6c0.7-2.6-0.9-5.2-3.5-5.9l-16.7-4.3
			c-2.6-0.7-5.2,0.9-5.9,3.5C193.6,158.1,195.1,160.8,197.7,161.4z"/>
		<path class="st11" d="M291.2,160.1c-6.5-11.8-14.6-19.2-14.9-19.5c-2-1.8-5-1.7-6.9,0.3c-1.8,2-1.7,5.1,0.3,6.9
			c0.3,0.3,28.5,26.5,17,56.1c-11.5,29.8-31.2,47.9-102.1,58.4c-2.7,0.4-4.5,2.9-4.1,5.5c0.4,2.4,2.4,4.1,4.8,4.1
			c0.2,0,0.5,0,0.7-0.1c75.2-11.2,97.2-32.1,109.7-64.5C301.6,192.5,300,176.1,291.2,160.1z"/>
		<path class="st11" d="M132,247.1c-1.8-2-4.9-2.1-6.9-0.3c-2,1.8-2.1,4.9-0.3,6.9l13,14c-61.3,2.4-94.5-19.5-108.9-33
			c-12.2-11.4-17.8-23-17.9-29.1c-0.6-40.8,20.4-54.2,21.3-54.8c2.3-1.4,3-4.3,1.7-6.6c-1.4-2.3-4.4-3.1-6.7-1.7
			c-1.1,0.6-26.7,16.5-26,63.3c0.1,10.3,8.2,24.1,21,36c14.8,13.8,47.6,35.8,106.5,35.8c3.1,0,6.4-0.1,9.7-0.2l-10.8,14.9
			c-1.6,2.2-1.1,5.2,1.1,6.8c0.9,0.6,1.9,0.9,2.9,0.9c1.5,0,3-0.7,3.9-2l16.9-23.2c1.4-1.9,1.2-4.5-0.4-6.2L132,247.1z"/>
	</g>
</g>
<g id="MOGRAPH" class="st0">
	<g class="st2">
		<path class="st11" d="M268.3,137.2c14.3,0,25.9-11.6,25.9-25.9s-11.6-25.9-25.9-25.9c-14.3,0-25.9,11.6-25.9,25.9
			S254.1,137.2,268.3,137.2z M268.3,99.2c6.7,0,12.1,5.4,12.1,12.1c0,6.7-5.4,12.1-12.1,12.1c-6.7,0-12.1-5.4-12.1-12.1
			C256.2,104.7,261.6,99.2,268.3,99.2z"/>
		<path class="st11" d="M294.8,140.2c-3.7-0.9-7.4,1.3-8.3,5c-0.1,0.4-2.9,10.9-17.6,9.7c-15.4-1.2-20.1-18.9-20.3-19.6
			c-0.1-0.3-0.1-0.5-0.2-0.8c0,0,0-0.1-0.1-0.2c0,0,0,0,0,0c-1-2.4-9.1-21.1-29.3-24c-21.7-3.1-32.9,15.8-33.4,16.6
			c-1.9,3.3-0.8,7.4,2.5,9.3c3.2,1.9,7.5,0.8,9.4-2.4c0.3-0.5,7.1-11.7,19.5-9.9c8.8,1.3,14,7.6,16.6,11.8l-86.6,89
			c-2.6,2.7-2.6,7.1,0.1,9.7c1.3,1.3,3.1,1.9,4.8,1.9c1.8,0,3.6-0.7,4.9-2.1l53.3-54.8c7.3-1.5,18.8-3.3,23.6-2.8
			c4.7,0.5,22.1,9.2,21.4,29.9c-0.7,20-16.6,28.6-17.3,29c-3.4,1.7-4.7,5.8-3,9.2c1.2,2.4,3.6,3.8,6.1,3.8c1,0,2.1-0.2,3.1-0.7
			c1-0.5,23.9-12.4,24.8-40.8c1-28.3-21.9-42.9-33.8-44.1c-2.5-0.2-5.7-0.1-9.1,0.2l13.7-14c4.5,8.1,13.1,18.2,28.2,19.4
			c1.2,0.1,2.3,0.1,3.4,0.1c18.6,0,26.8-12.9,28.6-20.2C300.7,144.9,298.5,141.2,294.8,140.2z"/>
		<path class="st11" d="M250.2,267.6c-81.8,0-163.6,0-245.4,0c-6.3,0-6.3,9.8,0,9.8c81.8,0,163.6,0,245.4,0
			C256.5,277.4,256.5,267.6,250.2,267.6z"/>
		<path class="st11" d="M196.5,154.8c6.3-0.1,6.3-9.9,0-9.8c-24.5,0.4-49,0.5-73.6,0.2c-6.3-0.1-6.3,9.7,0,9.8
			C147.4,155.3,171.9,155.3,196.5,154.8z"/>
		<path class="st11" d="M118.8,132.8c11,0,22,0,33.1,0c6.3,0,6.3-9.8,0-9.8c-11,0-22,0-33.1,0C112.5,123,112.4,132.8,118.8,132.8z"
			/>
		<path class="st11" d="M96.5,132.8c6.3,0,6.3-9.8,0-9.8C90.1,123,90.1,132.8,96.5,132.8z"/>
		<path class="st11" d="M93.2,155.9c3.6,0,7.2,0,10.7,0c6.3,0,6.3-9.8,0-9.8c-3.6,0-7.2,0-10.7,0C86.8,146.1,86.8,155.9,93.2,155.9z
			"/>
		<path class="st11" d="M75,156.8c6.3,0,6.3-9.8,0-9.8C68.7,147,68.7,156.8,75,156.8z"/>
		<path class="st11" d="M120.4,200.9c-6.3,0-6.3,9.8,0,9.8c6.9,0,13.8,0,20.7,0c6.3,0,6.3-9.8,0-9.8
			C134.2,200.9,127.3,200.9,120.4,200.9z"/>
		<path class="st11" d="M104.7,200.9c-6.3,0-6.3,9.8,0,9.8C111,210.7,111.1,200.9,104.7,200.9z"/>
		<path class="st11" d="M39.4,193.1c6.3,0,6.3-9.8,0-9.8C33.1,183.3,33.1,193.1,39.4,193.1z"/>
		<path class="st11" d="M9.7,193.1c6.3,0,6.3-9.8,0-9.8C3.4,183.3,3.4,193.1,9.7,193.1z"/>
	</g>
</g>
<g id="Online">
	<g>
		<path class="st11" d="M137.6,144.3c0.2,0.1,0.4,0.1,0.6,0.1c0.2,0,0.4-0.1,0.6-0.2l37.2-22.1c0.3-0.2,0.6-0.6,0.6-1
			s-0.2-0.8-0.6-1l-37.2-22.1c-0.4-0.2-0.8-0.2-1.1,0c-0.4,0.2-0.6,0.6-0.6,1v44.3C137,143.7,137.3,144.1,137.6,144.3z"/>
		<path class="st11" d="M294.7,19.1H4.6c-2.2,0-4,1.8-4,4v246.5c0,2.2,1.8,4,4,4h290.1c2.2,0,4-1.8,4-4V23.1
			C298.7,20.9,296.9,19.1,294.7,19.1z M290.7,27.1v194.7H8.6V27.1H290.7z M8.6,265.6v-35.9h282.2v35.9H8.6z"/>
		<path class="st11" d="M149.6,176.9c30.7,0,55.7-25,55.7-55.7s-25-55.7-55.7-55.7s-55.7,25-55.7,55.7S118.9,176.9,149.6,176.9z
			 M149.6,73.4c26.3,0,47.7,21.4,47.7,47.7s-21.4,47.7-47.7,47.7c-26.3,0-47.7-21.4-47.7-47.7S123.3,73.4,149.6,73.4z"/>
		<path class="st11" d="M270.2,245.2H86.6v-5.4c0-1.6-1.3-2.9-2.9-2.9c-1.6,0-2.9,1.3-2.9,2.9v5.4h-26c-1.3,0-2.3,1-2.3,2.3
			c0,1.3,1,2.3,2.3,2.3h26v5.6c0,1.6,1.3,2.9,2.9,2.9c1.6,0,2.9-1.3,2.9-2.9v-5.6h183.7c1.3,0,2.3-1,2.3-2.3
			C272.5,246.2,271.5,245.2,270.2,245.2z"/>
		<path class="st11" d="M22.2,239c-1.6,0-2.9,1.3-2.9,2.9v11.3c0,1.6,1.3,2.9,2.9,2.9s2.9-1.3,2.9-2.9v-11.3
			C25.1,240.2,23.8,239,22.2,239z"/>
		<path class="st11" d="M31.2,239c-1.6,0-2.9,1.3-2.9,2.9v11.3c0,1.6,1.3,2.9,2.9,2.9c1.6,0,2.9-1.3,2.9-2.9v-11.3
			C34,240.2,32.7,239,31.2,239z"/>
		<path class="st11" d="M169.3,93.4c6.3,3.5,10.7,9.1,12.4,16.1c0.9,3.6,6.4,2,5.5-1.5c-2.1-8.3-7.5-15.3-15.1-19.5
			C169,86.7,166.1,91.6,169.3,93.4z"/>
		<path class="st11" d="M161.6,88.5c3.7,0,3.7-5.7,0-5.7C157.9,82.8,157.9,88.5,161.6,88.5z"/>
		<path class="st11" d="M106.1,168.9c-8.7,0-8.8,13.6,0,13.6C114.8,182.5,114.8,168.9,106.1,168.9z"/>
	</g>
</g>
</svg>
