<?xml version="1.0" encoding="utf-8"?>
<!-- Generator: Adobe Illustrator 23.0.1, SVG Export Plug-In . SVG Version: 6.00 Build 0)  -->
<svg version="1.1" id="Capa_1" xmlns="http://www.w3.org/2000/svg" xmlns:xlink="http://www.w3.org/1999/xlink" x="0px" y="0px"
	 viewBox="0 0 452 452" style="enable-background:new 0 0 452 452;" xml:space="preserve">
<style type="text/css">
	.st0{fill:#FFFFFF;}
</style>
<path class="st0" d="M366.4,140.1l20.7-61c1.7-5,0.4-10.6-3.4-14.4c-3.8-3.8-9.3-5.1-14.4-3.3l-61,20.7l-51.6-38.5
	c-4.3-3.2-10-3.7-14.7-1.2c-4.7,2.4-7.7,7.3-7.6,12.6l0.8,64.4l-52.6,37.2c-4.3,3.1-6.6,8.3-5.7,13.6c0.8,5.3,4.6,9.6,9.7,11.2
	l26.1,8.1L9.6,392.5c-12.8,12.8-12.8,33.6,0,46.4l0.1,0.1c12.8,12.7,33.5,12.7,46.3-0.1l203.2-203.2l8.1,26.1
	c1.6,5.1,5.9,8.8,11.2,9.7c0.7,0.1,1.5,0.2,2.2,0.2c4.5,0,8.8-2.2,11.4-5.9l37.2-52.6l64.4,0.8c5.3,0.1,10.2-2.9,12.6-7.6
	c2.4-4.7,1.9-10.4-1.3-14.7L366.4,140.1z M44.7,427.6c-6.6,6.6-17.2,6.6-23.8,0l-0.1-0.1c-6.5-6.6-6.5-17.2,0.1-23.7L87.6,337
	l23.8,23.8L44.7,427.6z M122.7,349.5l-23.8-23.8l131-131l18.1,5.6l5.6,18.1L122.7,349.5z M328.3,197.2c-4.6-0.1-8.9,2.1-11.6,5.9
	l-35.4,50.1l-18.2-58.6c-1.4-4.4-4.8-7.8-9.2-9.2l-58.6-18.2l50.1-35.4c3.8-2.7,6-7,5.9-11.6l-0.8-61.4l49.2,36.7
	c3.7,2.7,8.5,3.5,12.8,2l58.1-19.7L350.9,136c-1.5,4.4-0.7,9.2,2,12.8l36.7,49.2L328.3,197.2z"/>
<path class="st0" d="M124.1,90.9l9.7,2.7l-2.7,9.8c-1.2,4.3,1.3,8.6,5.6,9.8s8.6-1.3,9.8-5.6l2.7-9.8l9.8,2.7
	c4.2,1.2,8.6-1.3,9.8-5.6c1.2-4.2-1.3-8.6-5.6-9.8l-9.8-2.7l2.7-9.8c1.2-4.2-1.3-8.6-5.6-9.8c-4.2-1.2-8.6,1.3-9.8,5.6l-2.7,9.8
	l-9.8-2.7c-4.2-1.2-8.6,1.3-9.8,5.6C117.3,85.3,119.8,89.7,124.1,90.9L124.1,90.9z"/>
<path class="st0" d="M377,347.3l-5-1.4l1.4-5c1.2-4.2-1.3-8.6-5.6-9.8c-4.2-1.2-8.6,1.3-9.8,5.6l-1.4,5l-5-1.4
	c-4.2-1.1-8.6,1.4-9.8,5.6s1.3,8.6,5.5,9.8l5,1.4l-1.4,5c-0.8,2.8,0,5.7,2,7.8c2,2.1,5,2.9,7.7,2.1c2.8-0.7,4.9-2.9,5.7-5.7l1.4-5
	l5,1.4c4.2,1.1,8.6-1.3,9.8-5.6C383.7,352.8,381.3,348.5,377,347.3z"/>
<path class="st0" d="M446.2,126.9l-9.3-2.6l2.6-9.3c1.2-4.2-1.3-8.6-5.6-9.8c-4.3-1.2-8.6,1.3-9.8,5.6l-2.6,9.3l-9.3-2.6
	c-2.8-0.8-5.7,0-7.7,2c-2,2-2.8,4.9-2.1,7.7c0.7,2.8,2.9,4.9,5.6,5.7l9.3,2.6l-2.6,9.3c-1.2,4.3,1.3,8.6,5.6,9.8
	c4.2,1.2,8.6-1.3,9.8-5.6l2.6-9.3l9.3,2.6c4.2,1.2,8.6-1.3,9.8-5.6C452.9,132.5,450.4,128.1,446.2,126.9L446.2,126.9z"/>
<path class="st0" d="M299.9,30.9l6.6,1.8l-1.8,6.6c-0.8,2.8,0,5.7,2,7.7c2,2,4.9,2.8,7.7,2.1c2.8-0.7,4.9-2.9,5.7-5.6l1.8-6.6
	l6.6,1.8c2.8,0.8,5.8,0.1,7.9-1.9c2.1-2,2.9-5,2.2-7.8c-0.8-2.8-3-5-5.8-5.7l-6.6-1.8l1.8-6.6c1.2-4.2-1.3-8.6-5.6-9.8
	c-4.2-1.2-8.6,1.3-9.8,5.5l-1.8,6.6l-6.6-1.8c-2.8-0.8-5.7,0-7.7,2c-2,2-2.8,4.9-2.1,7.7C295,28,297.2,30.2,299.9,30.9L299.9,30.9z"
	/>
</svg>
