<?xml version="1.0" encoding="utf-8"?>
<!-- Generator: Adobe Illustrator 23.0.1, SVG Export Plug-In . SVG Version: 6.00 Build 0)  -->
<svg version="1.1" id="Capa_1" xmlns="http://www.w3.org/2000/svg" xmlns:xlink="http://www.w3.org/1999/xlink" x="0px" y="0px"
	 viewBox="0 0 501 501" style="enable-background:new 0 0 501 501;" xml:space="preserve">
<style type="text/css">
	.st0{fill:#FFFFFF;}
</style>
<path class="st0" d="M469.7,206.4c-17.2-10.8-41.2-20.2-71.2-27.4v-40.4c0-3.1-1.8-6-4.6-7.3L253.8,66.9c-2.1-1-4.5-1-6.7,0
	l-140,64.5c-2.8,1.3-4.6,4.2-4.6,7.3v40.6c-29,7.2-53.5,16.5-70.8,27.2C10.7,219.4,0,234.1,0,250.1c0,21.5,19.8,41,57.1,56.4
	c14.8,6,30,10.8,45.5,14.5v43.5c0,3.1,1.7,5.9,4.6,7.3l140.1,64.5c2.1,1,4.5,1,6.7,0l140-64.5c2.8-1.3,4.6-4.2,4.6-7.3v-43.6
	c58-14.4,102.5-38.2,102.5-70.8C501,230.1,484,215.3,469.7,206.4z M250.5,82.9l121.1,55.7l-121.1,56.1l-121.1-56.1L250.5,82.9z
	 M199.6,359.5v-63l48.1,31.5L199.6,359.5z M196,274.9c-2.5-1.6-5.6-1.7-8.2-0.4c-2.6,1.4-4.2,4.1-4.2,7v36.5
	c-21.8-2-43.5-5.2-65-9.8V151.1l124,57.5v96.9L196,274.9z M16,250.1c0-12.6,13.2-23.3,24.2-30.1c15.1-9.3,36.3-17.6,62.3-24.3v108.9
	C45.6,290,16,268.4,16,250.1z M118.6,324.6c21.5,4.4,43.2,7.6,65,9.6v40.1c0,2.9,1.6,5.6,4.2,7c2.6,1.4,5.7,1.3,8.2-0.4l46.6-30.6
	v66.1l-124-57.1V324.6z M382.5,359.4l-124,57.1v-76.6l8.1-5.3c2.3-1.5,3.6-4,3.6-6.7c0-2.7-1.4-5.2-3.6-6.7l-8.1-5.3V208.6l124-57.5
	v157.2c-25.3,5.4-50.8,9-76.6,10.8c-4.3,0.3-7.6,4-7.4,8.3c0.2,4.3,3.7,7.7,8,7.7c0.2,0,0.3,0,0.6,0c25.3-1.9,50.5-5.4,75.4-10.5
	V359.4z M436.9,292.1c-12.5,5-25.3,9.1-38.4,12.4v-109c54,13.7,86.5,34.3,86.5,54.7C485,264.4,467.5,279.7,436.9,292.1z"/>
</svg>
