<svg height="480pt" viewBox="-8 0 480 480" width="480pt" xmlns="http://www.w3.org/2000/svg"><path d="m192 480h272v-416h-192v-64h-272v416h192zm0-384-5.65625-5.65625-112 112 11.3125 11.3125 106.34375-106.34375v25.375l-69.65625 69.65625 11.3125 11.3125 58.34375-58.34375v84.6875h-144v-192h176v16h-32zm256-16v384h-240v-384zm-432 320v-384h240v48h-16v-32h-208v224h160v144zm0 0"/><path d="m432 96h-208v224h208zm-16 208h-176v-192h176zm0 0"/><path d="m32 272h80v16h-80zm0 0"/><path d="m128 272h16v16h-16zm0 0"/><path d="m32 304h128v16h-128zm0 0"/><path d="m352 336h80v16h-80zm0 0"/><path d="m320 336h16v16h-16zm0 0"/><path d="m304 368h128v16h-128zm0 0"/><path d="m66.339844 162.347656 72-72.003906 11.3125 11.316406-72 72zm0 0"/><path d="m32 336v48h144v-48zm32 32h-16v-16h16zm32 0h-16v-16h16zm32 0h-16v-16h16zm32 0h-16v-16h16zm0 0"/><path d="m416 432h16v16h-16zm0 0"/><path d="m384 176h16v-48h-32v16h16zm0 0"/><path d="m384 192h16v16h-16zm0 0"/></svg>